<?xml version="1.0" encoding="UTF-8"?>
<svg width="23px" height="23px" viewBox="0 0 23 23" version="1.1" xmlns="http://www.w3.org/2000/svg" xmlns:xlink="http://www.w3.org/1999/xlink">
    <title>595CF299-1235-4AAB-98E2-A45A80E943C0</title>
    <g id="Page-1" stroke="none" stroke-width="1" fill="none" fill-rule="evenodd">
        <g id="UI-Kit-module-8" transform="translate(-984.000000, -560.000000)" fill="#4D4949" fill-rule="nonzero">
            <g id="atoms/icon/a-icon-instagram" transform="translate(984.000000, 560.000000)">
                <g id="instagram">
                    <path d="M16.7741089,0 L6.22589111,0 C2.7928772,0 0,2.7928772 0,6.22589111 L0,16.7742844 C0,20.2071228 2.7928772,23 6.22589111,23 L16.7742844,23 C20.2071228,23 23,20.2071228 23,16.7742844 L23,6.22589111 C23,2.7928772 20.2071228,0 16.7741089,0 Z M21.6516418,16.7742844 C21.6516418,19.4636307 19.4636307,21.6516418 16.7741089,21.6516418 L6.22589111,21.6516418 C3.53636931,21.6516418 1.34835815,19.4636307 1.34835815,16.7742844 L1.34835815,6.22589111 C1.34835815,3.53636931 3.53636931,1.34835815 6.22589111,1.34835815 L16.7742844,1.34835815 C19.4636307,1.34835815 21.6516418,3.53636931 21.6516418,6.22589111 L21.6516418,16.7742844 Z" id="Shape"></path>
                    <path d="M11,6 C7.69153718,6 5,8.69153718 5,12 C5,15.3084628 7.69153718,18 11,18 C14.3084628,18 17,15.3084628 17,12 C17,8.69153718 14.3084628,6 11,6 Z M11,16.7135802 C8.40104356,16.7135802 6.28641982,14.5991238 6.28641982,12 C6.28641982,9.40104356 8.40104356,7.28641982 11,7.28641982 C13.5991238,7.28641982 15.7135802,9.40104356 15.7135802,12 C15.7135802,14.5991238 13.5991238,16.7135802 11,16.7135802 Z" id="Shape"></path>
                    <path d="M16.9999056,3 C15.8970304,3 15,3.89721921 15,4.99990558 C15,6.10278079 15.8970304,7 16.9999056,7 C18.1027808,7 19,6.10278079 19,4.99990558 C19,3.89703037 18.1027808,3 16.9999056,3 Z M16.9999056,5.54869928 C16.6973703,5.54869928 16.4511119,5.30244085 16.4511119,4.99990558 C16.4511119,4.69718143 16.6973703,4.45111183 16.9999056,4.45111183 C17.3026297,4.45111183 17.5488882,4.69718143 17.5488882,4.99990558 C17.5488882,5.30244085 17.3026297,5.54869928 16.9999056,5.54869928 Z" id="Shape"></path>
                </g>
            </g>
        </g>
    </g>
</svg>