<?xml version="1.0" encoding="UTF-8"?>
<svg width="65px" height="65px" viewBox="0 0 65 65" version="1.1" xmlns="http://www.w3.org/2000/svg" xmlns:xlink="http://www.w3.org/1999/xlink">
    <title>0508E5C0-0DEA-442A-B9F6-96996F6D82F9</title>
    <g id="Page-1" stroke="none" stroke-width="1" fill="none" fill-rule="evenodd">
        <g id="UI-Kit-module-8" transform="translate(-197.000000, -518.000000)" fill="#4D4949" fill-rule="nonzero">
            <g id="atoms/icon/a-icon-accurate" transform="translate(197.000000, 518.000000)">
                <g id="pivot">
                    <path d="M57,44.6153013 L57,27.9750148 C57,27.4365889 56.5694376,27 56.0373319,27 C55.5057243,27 55.074664,27.4365889 55.074664,27.9750148 L55.074664,43.6402865 L17.2349428,43.6402865 L16.0900946,42.9712872 C16.0368342,42.9400303 15.9815828,42.914823 15.925336,42.8951614 L15.925336,34.8651531 C15.925336,34.3267271 15.4942758,33.8901384 14.9626681,33.8901384 C14.4310603,33.8901384 14,34.3267271 14,34.8651531 L14,44.6153013 C14,45.1542315 14.4310603,45.5903162 14.9626681,45.5903162 L41.3499254,45.5903162 L40.8078647,46.5416362 C40.5659532,46.9656215 40.6804381,47.523709 41.0701842,47.8135919 C41.5266301,48.1538892 42.1921354,48.0127289 42.4753609,47.516651 L43.2453958,46.1655446 C43.3484321,45.9845568 43.3872574,45.7839075 43.3698357,45.5903162 L56.0373319,45.5903162 C56.5689398,45.5903162 57,45.1542315 57,44.6153013 L57,44.6153013 Z" id="Path"></path>
                    <path d="M18.4638319,5.11892209 C17.9514997,4.87428924 17.2968221,5.01905321 17.0005002,5.44326669 L16.1436593,6.67101178 C15.8478912,7.09476705 16.023469,7.63625755 16.5358011,7.8808904 C16.7047323,7.96151844 16.888618,8 17.0702882,8 C17.440829,8 17.8008463,7.84103447 17.9991327,7.55700389 L18.8559737,6.3292588 C19.1522956,5.90550352 18.9767179,5.36355482 18.4638319,5.11892209 Z" id="Path"></path>
                    <path d="M34.6710627,7.85652545 C34.8103419,7.95402174 34.9629077,8 35.1131827,8 C35.4192304,8 35.7170312,7.8077773 35.8810509,7.46432444 C36.1257057,6.95191498 35.9809286,6.29658474 35.5571351,6.00077205 L34.329279,5.14380188 C33.9054854,4.84798919 33.3634877,5.02303936 33.1188329,5.53600274 C32.8741779,6.04841235 33.0194131,6.70318853 33.4432067,6.99900122 L34.6710627,7.85652545 Z" id="Path"></path>
                    <path d="M44.0006226,40.4434401 L43.1436769,41.6711019 C42.8478726,42.0948285 43.0234718,42.6362823 43.5358667,42.8813567 C43.7048185,42.961521 43.8887267,43 44.0704192,43 C44.4404514,43 44.8005127,42.8410454 44.9993772,42.5570339 L45.8563231,41.3293721 C46.1521274,40.9056456 45.9765282,40.3637338 45.4641333,40.1191176 C44.9517384,39.8740432 44.2964269,40.0192556 44.0006226,40.4434401 L44.0006226,40.4434401 Z" id="Path"></path>
                    <path d="M38.6708724,10.8565195 C38.8105938,10.9540197 38.9626841,11 39.1129419,11 C39.4194129,11 39.7171798,10.8077694 39.8811808,10.4643027 C40.1258077,9.95187264 39.9805891,9.29651602 39.5568437,9.00069142 L38.3291275,8.14368675 C37.9049241,7.84786215 37.3634464,8.02347345 37.1188193,8.53590355 C36.8741922,9.04833364 37.019411,9.70369026 37.4431563,9.99951472 L38.6708724,10.8565195 Z" id="Path"></path>
                    <path d="M44.5568437,12.0006916 L43.3291276,11.1436868 C42.9049242,10.8478622 42.3634463,11.0234735 42.1188192,11.5359035 C41.8741923,12.0483336 42.0194109,12.7036903 42.4431563,12.9995149 L43.6708725,13.8565195 C43.8105939,13.9540197 43.9626841,14 44.1129419,14 C44.4194128,14 44.7171797,13.8083234 44.8811807,13.4643027 C45.1258078,12.9518726 44.980589,12.296516 44.5568437,12.0006916 L44.5568437,12.0006916 Z" id="Path"></path>
                    <path d="M26.3293305,48.1436868 C25.9050624,47.8478622 25.3635018,48.0234733 25.1188375,48.5359035 C24.874173,49.0483337 25.0194139,49.7036904 25.443224,49.9995148 L26.6706694,50.8565197 C26.8104123,50.9540199 26.9629839,51 27.1132646,51 C27.4193242,51 27.7171367,50.8083235 27.8811626,50.4643029 C28.1258269,49.9518727 27.9805861,49.2965161 27.5567761,49.0006915 L26.3293305,48.1436868 Z" id="Path"></path>
                    <path d="M38.9987056,50.4436936 L38.140938,51.6728987 C37.8714649,52.0586306 37.9989933,52.5663657 38.4331446,52.830553 C38.941595,53.1401476 39.6829234,53.0112646 39.9984179,52.5599445 L40.8561854,51.3307394 C41.1522732,50.9064801 40.9765057,50.363887 40.4636194,50.1189633 C39.9507333,49.8740397 39.2947935,50.0194345 38.9987056,50.4436936 Z" id="Path"></path>
                    <path d="M55.0007165,20.4431815 L54.1438108,21.6709675 C53.8480205,22.0947369 54.0230574,22.6367036 54.5354283,22.8813445 C54.7043722,22.9619753 54.8888257,23 55.0705096,23 C55.4405245,23 55.800569,22.8410292 55.9988703,22.5569891 L56.8563298,21.3292031 C57.1521202,20.9054337 56.9765294,20.3634669 56.4641584,20.1188261 C55.9512337,19.8741851 55.2959528,20.0194121 55.0007165,20.4431815 Z" id="Path"></path>
                    <path d="M21.3291276,45.1438018 C20.9053822,44.8479892 20.3639044,45.0230394 20.1188193,45.5360028 C19.8741923,46.0484124 20.0194109,46.7031885 20.4431562,46.9995552 L21.6708724,47.8565254 C21.8105938,47.9540217 21.9626841,48 22.1129419,48 C22.4194128,48 22.7171798,47.8077773 22.8811807,47.4643243 C23.1258078,46.9519149 22.9805891,46.2965848 22.5568438,46.0007721 L21.3291276,45.1438018 Z" id="Path"></path>
                    <path d="M49.5567761,15.0005067 L48.3293306,14.1436602 C47.9055204,13.8478903 47.3635019,14.0234691 47.1188374,14.5358045 C46.8741731,15.04814 47.0194139,15.7033756 47.4432239,15.9991456 L48.6706695,16.855992 C48.8104122,16.9534743 48.9629839,17 49.1132647,17 C49.4193241,17 49.7171366,16.8078049 49.8811625,16.4638478 C50.125827,15.9515122 49.9805862,15.2968305 49.5567761,15.0005067 Z" id="Path"></path>
                    <path d="M30.3291276,51.1436602 C29.9053823,50.8478902 29.3634463,51.0234691 29.1188193,51.5358046 C28.8741923,52.0481401 29.0194109,52.7033757 29.4431562,52.9991456 L30.6708724,53.8559922 C30.8101357,53.9534744 30.962684,54 31.1129418,54 C31.4189548,54 31.7167217,53.8078049 31.8811807,53.4638478 C32.1258077,52.9515123 31.9805891,52.2962767 31.5568438,52.0005067 L30.3291276,51.1436602 Z" id="Path"></path>
                    <path d="M35.7407731,54.5269426 L35.2320497,54.1436602 C34.8388297,53.8478902 34.3369006,54.0234691 34.1101409,54.5358046 C33.8833811,55.0481401 34.0179931,55.7033757 34.4107887,55.9991457 L35.5488341,56.8559922 C35.6783504,56.9534744 35.8193321,57 35.9586153,57 C36.242702,57 36.5187205,56.8078049 36.6707429,56.4638478 L36.8898591,55.9692363 C37.1166189,55.4569008 36.9820069,54.8016652 36.5892113,54.5058954 C36.3161654,54.3009611 35.9904636,54.3225623 35.7407731,54.5269426 L35.7407731,54.5269426 Z" id="Path"></path>
                    <path d="M2.55684373,35.0006916 L1.32912754,34.1436868 C0.905382246,33.8478622 0.363446301,34.0234735 0.118819328,34.5359035 C-0.125807763,35.0483336 0.0194108767,35.7036903 0.443156292,35.9995149 L1.67087248,36.8565195 C1.81059388,36.9540197 1.9626841,37 2.1129419,37 C2.41941282,37 2.71717986,36.8083234 2.8811807,36.4643027 C3.12580779,35.9518726 2.98058903,35.296516 2.55684373,35.0006916 L2.55684373,35.0006916 Z" id="Path"></path>
                    <path d="M4.46383197,30.118927 C3.95149964,29.8740783 3.29626823,30.0194285 3.00105413,30.4435576 L2.14365924,31.6723861 C1.8478913,32.0965154 2.0234689,32.6389423 2.53580109,32.8837908 C3.04204078,33.1254299 3.70779567,32.9773285 3.99913276,32.55916 L4.85597368,31.3303316 C5.1522956,30.9062025 4.97671799,30.3637756 4.46383197,30.118927 Z" id="Path"></path>
                    <path d="M8.53586664,22.8836959 C9.04161422,23.125327 9.7074507,22.977689 9.9988233,22.5590758 L10.8563231,21.3302879 C11.1521274,20.9061727 10.9765283,20.3637636 10.4641333,20.118923 C9.9517384,19.8740824 9.29642683,20.0194279 9.0006227,20.4435431 L8.14367681,21.672331 C7.84787269,22.0964462 8.02347177,22.6388553 8.53586664,22.8836959 Z" id="Path"></path>
                    <path d="M11.3291275,40.1436602 C10.9053822,39.8478903 10.3634464,40.023469 10.1188193,40.5358047 C9.87419221,41.0481402 10.019411,41.7033756 10.4431563,41.9991456 L11.6708724,42.8559922 C11.8101358,42.9534744 11.9626841,43 12.1129419,43 C12.4189547,43 12.7167217,42.8078049 12.8811808,42.4644016 C13.1258077,41.9520662 12.9805891,41.2968305 12.5568437,41.0010607 L11.3291275,40.1436602 Z" id="Path"></path>
                    <path d="M5.5356306,27.8834862 C6.04186681,28.1255883 6.7076173,27.9774842 6.99895247,27.5588493 L7.85634171,26.3304566 C8.15210769,25.9063194 7.97653125,25.3638824 7.46420245,25.1190292 C6.95187364,24.874176 6.29664656,25.0190703 6.00088058,25.443666 L5.14404517,26.6720589 C4.84772521,27.096196 5.02330166,27.638633 5.5356306,27.8834862 Z" id="Path"></path>
                    <path d="M7.11318265,40 C7.41923036,40 7.71703122,39.8078049 7.88105085,39.4638478 C8.1257057,38.9515122 7.98092864,38.2968305 7.55713506,38.0005067 L6.32927899,37.1436602 C5.90548541,36.8478903 5.36348772,37.0234691 5.11883287,37.5358045 C4.87417791,38.04814 5.01941309,38.7033756 5.44320667,38.9991456 L6.67106275,39.855992 C6.81034194,39.9534743 6.9624496,40 7.11318265,40 L7.11318265,40 Z" id="Path"></path>
                    <path d="M10.5358666,17.8837947 C11.0421683,18.1254257 11.7074507,17.9773293 11.9993773,17.5591748 L12.8563232,16.3303873 C13.1521273,15.9062723 12.9765282,15.3638635 12.4641332,15.1190231 C11.9517384,14.8741825 11.2964269,15.0190694 11.0006227,15.443643 L10.1436768,16.6724304 C9.84787269,17.0965455 10.0234718,17.6389543 10.5358666,17.8837947 Z" id="Path"></path>
                    <path d="M52.5358416,27.8813446 C52.7047855,27.9619754 52.8886851,28 53.0703691,28 C53.4409378,28 53.8009821,27.8410293 53.9992836,27.5569892 L54.8561892,26.3292032 C55.1519795,25.9054338 54.9769425,25.363467 54.4645717,25.118826 C53.9522009,24.8741851 53.29692,25.019412 53.0011298,25.4431814 L52.1436701,26.6709675 C51.8478798,27.0947369 52.0234707,27.6367036 52.5358416,27.8813446 L52.5358416,27.8813446 Z" id="Path"></path>
                    <path d="M52.4431563,18.9990635 L53.6708725,19.8559804 C53.8105939,19.9534706 53.9626841,20 54.1129419,20 C54.4189547,20 54.7171798,19.8077891 54.8811807,19.4643577 C55.1258078,18.9519802 54.9805891,18.2966908 54.5568437,18.0008967 L53.3291275,17.1434258 C52.9049241,16.8481856 52.3634463,17.0232248 52.1188193,17.5356025 C51.8741922,18.04798 52.019411,18.7032692 52.4431563,18.9990635 L52.4431563,18.9990635 Z" id="Path"></path>
                    <path d="M50.0006227,30.4431138 L49.1436768,31.6707124 C48.8478727,32.0944171 49.0234718,32.6363011 49.5358666,32.8809046 C49.7048186,32.961523 49.8887267,33 50.0704191,33 C50.4410054,33 50.8010666,32.8410534 50.9993773,32.5565987 L51.8563231,31.3290002 C52.1521274,30.9052955 51.9765283,30.3634115 51.4641334,30.1188079 C50.9517384,29.8742043 50.2964268,30.019409 50.0006227,30.4431138 L50.0006227,30.4431138 Z" id="Path"></path>
                    <path d="M14.4740433,12.9215662 C14.5362774,12.9582839 14.6014518,12.9850777 14.667606,13.0059174 L14.667606,30.0403818 C14.667606,30.5703054 15.0919738,31 15.615328,31 C16.1386821,31 16.5630498,30.5703054 16.5630498,30.0403818 L16.5630498,11.1690474 C16.687028,10.9030932 16.6796775,10.6043909 16.5630498,10.3523299 L16.5630498,4.3867196 L28.2993161,4.3867196 C28.3689006,4.47206311 28.4541662,4.5469868 28.5546228,4.60553635 L29.8679085,5.37362802 C30.0168782,5.46045998 30.1800589,5.50213936 30.3407893,5.50213936 C30.6681307,5.50213936 30.9866516,5.3299639 31.162083,5.02233021 C31.2762604,4.82236849 31.3110527,4.5980937 31.2767505,4.3867196 L55.1045562,4.3867196 L55.1045562,15.7096195 C55.1045562,16.2400393 55.528924,16.6692378 56.0522781,16.6692378 C56.5761224,16.6692378 57,16.2400393 57,15.7096195 L57,3.42710142 C57,2.89668164 56.5761224,2.46698696 56.0522781,2.46698696 L26.1274943,2.46698696 C26.2127598,2.39603273 26.2882248,2.31019308 26.3470286,2.20698698 C26.6087057,1.74851373 26.4533656,1.16152901 26.000086,0.896567262 L24.6868002,0.128475718 C24.2335207,-0.135989879 23.6543028,0.0208038754 23.3921357,0.479773401 C23.1304586,0.9387428 23.2857987,1.52572752 23.7390783,1.79068927 L24.8965339,2.46698696 L21.5295241,2.46698696 L22.0866904,1.48950605 C22.3483676,1.03053665 22.1935175,0.443552062 21.7402379,0.178590186 C21.2864682,-0.0863716889 20.7072503,0.0709184706 20.4455733,0.529887869 L19.6870038,1.85965876 C19.5782166,2.05068925 19.5424443,2.26404807 19.5693961,2.46698696 L15.615328,2.46698696 C15.0919738,2.46698696 14.667606,2.89668164 14.667606,3.42710142 L14.667606,10.6629405 L14.1271008,11.6111465 C13.8654237,12.0696198 14.0207638,12.6566045 14.4740433,12.9215662 Z" id="Path"></path>
                    <path d="M46.5358667,37.8813445 C46.7042646,37.9619753 46.8887267,38 47.0704192,38 C47.4410054,38 47.8005127,37.8414873 47.9993774,37.5569891 L48.8563231,36.3292031 C49.1521274,35.9054336 48.9765282,35.3639251 48.4641333,35.118826 C47.9517384,34.8741851 47.2964269,35.019412 47.0006228,35.4431814 L46.1436769,36.6709674 C45.8478726,37.0947369 46.0234718,37.6367035 46.5358667,37.8813445 L46.5358667,37.8813445 Z" id="Path"></path>
                    <path d="M25,7 C24.4776411,7 24.0540806,7.42356059 24.0540806,7.94591957 L24.0540806,10.1419788 C22.6219956,10.4931527 21.4931527,11.6219955 21.1414897,13.0540804 L18.9459196,13.0540804 C18.4235607,13.0540804 18,13.4776411 18,14 C18,14.5228479 18.4235607,14.9459196 18.9459196,14.9459196 L21.1414897,14.9459196 C21.4926636,16.3780045 22.6219956,17.5073365 24.0540806,17.8585103 L24.0540806,20.0540804 C24.0540806,20.5764394 24.4776411,21 25,21 C25.5223589,21 25.9459196,20.5764394 25.9459196,20.0540804 L25.9459196,17.8585103 C27.3780045,17.5073365 28.5068475,16.3780045 28.8585103,14.9459196 L31.0540806,14.9459196 C31.5764394,14.9459196 32,14.5228479 32,14 C32,13.4776411 31.5764394,13.0540804 31.0540806,13.0540804 L28.8585103,13.0540804 C28.5073365,11.6219955 27.3780045,10.4931527 25.9459196,10.1419788 L25.9459196,7.94591957 C25.9459196,7.42356059 25.5223589,7 25,7 Z M27.0811208,14 C27.0811208,15.1474287 26.1474288,16.0811208 25,16.0811208 C23.8525713,16.0811208 22.9188792,15.1474287 22.9188792,14 C22.9188792,12.8525713 23.8525713,11.9188792 25,11.9188792 C26.1474288,11.9188792 27.0811208,12.8525713 27.0811208,14 Z" id="Shape"></path>
                    <path d="M64.0442983,31 C63.5165376,31 63.0885967,31.4340982 63.0885967,31.9705735 C63.0885967,48.561157 49.7977219,62.058853 33.461351,62.058853 C23.8746849,62.058853 14.9536497,57.386149 9.38350018,49.5056344 L15.1112861,49.5056344 C15.6390469,49.5056344 16.0669877,49.0715361 16.0669877,48.5350609 C16.0669877,47.9990875 15.6390469,47.5644875 15.1112861,47.5644875 L6.95619585,47.5644875 C6.42794093,47.5644875 6,47.9990875 6,48.5350609 L6,56.8175555 C6,57.3535289 6.42794093,57.7881291 6.95619585,57.7881291 C7.48395665,57.7881291 7.91189745,57.3535289 7.91189745,56.8175555 L7.91189745,50.7517223 C13.8457473,59.0713536 23.3019557,64 33.461351,64 C41.8857573,64 49.8056284,60.6682331 55.7627037,54.6189607 C61.7192847,48.5691865 65,40.5260733 65,31.9705735 C65,31.4346001 64.5720592,31 64.0442983,31 Z" id="Path"></path>
                </g>
            </g>
        </g>
    </g>
</svg>