<?xml version="1.0" encoding="UTF-8"?>
<svg width="14px" height="13px" viewBox="0 0 14 13" version="1.1" xmlns="http://www.w3.org/2000/svg" xmlns:xlink="http://www.w3.org/1999/xlink">
    <title>662FF7F3-922F-4D93-A6B6-ABFCF82ECE11</title>
    <g id="Page-1" stroke="none" stroke-width="1" fill="none" fill-rule="evenodd">
        <g id="UI-Kit-module-8" transform="translate(-1101.000000, -570.000000)" fill="#818181" fill-rule="nonzero">
            <g id="atoms/icon/a-icon-comment" transform="translate(1101.000000, 570.000000)">
                <g id="chat">
                    <path d="M12.6168,0.0165241234 L4.65033333,0 C3.88733333,0 3.26666667,0.627916689 3.26666667,1.39982931 L3.26666667,2.60939514 L1.38366667,2.61340815 C0.620666667,2.61340815 0,3.24132484 0,4.01323746 L0,9.00375878 C0,9.77567141 0.620666667,10.403352 1.38366667,10.403352 L2.8,10.403352 L2.8,12.7639411 C2.8,12.8614334 2.85926667,12.9490113 2.94933333,12.9841841 C2.97663333,12.9948067 3.0051,13 3.03333333,13 C3.09773333,13 3.16096667,12.9728532 3.206,12.9228087 L5.47026667,10.4028799 L9.34966667,10.3868279 C10.1126667,10.3868279 10.7333333,9.75891122 10.7333333,8.98723466 L10.7333333,8.96056 L11.9606667,10.3263968 C12.0057,10.3764413 12.0689333,10.4035881 12.1333333,10.4035881 C12.1615667,10.4035881 12.1900333,10.3983948 12.2173333,10.3877721 C12.3074,10.3525994 12.3666667,10.2650215 12.3666667,10.1675292 L12.3666667,7.80694013 L12.6163333,7.80694013 C13.3793333,7.80694013 14,7.17902344 14,6.40734688 L14,1.41635343 C14,0.644676872 13.3795667,0.0167601823 12.6168,0.0165241234 Z M10.2666667,8.9869986 C10.2666667,9.49853825 9.8553,9.91447404 9.34873333,9.91447404 L5.36573333,9.93099817 C5.3004,9.93123422 5.23786667,9.95932523 5.194,10.0081894 L3.26666667,12.1532567 L3.26666667,10.1670571 C3.26666667,10.0367526 3.16236667,9.93099817 3.03333333,9.93099817 L1.38366667,9.93099817 C0.878033333,9.93099817 0.466666667,9.51482632 0.466666667,9.00352273 L0.466666667,4.0130014 C0.466666667,3.50146175 0.878033333,3.0852899 1.38413333,3.0852899 L3.5,3.08080478 C3.5,3.08080478 3.5,3.08080478 3.5,3.08080478 C3.50023333,3.08080478 3.50023333,3.08080478 3.50046667,3.08080478 L9.34966667,3.06852972 C9.8553,3.06852972 10.2666667,3.48470157 10.2666667,3.99624122 L10.2666667,8.3494035 L10.2666667,8.9869986 Z M13.5333333,6.40687476 C13.5333333,6.91841441 13.1219667,7.3343502 12.6163333,7.3343502 L12.1333333,7.3343502 C12.0043,7.3343502 11.9,7.44010459 11.9,7.57040911 L11.9,9.55660874 L10.7333333,8.25828476 L10.7333333,3.99647727 C10.7333333,3.22456465 10.1126667,2.59664796 9.3492,2.59664796 L3.73333333,2.60821485 L3.73333333,1.39959325 C3.73333333,0.888053604 4.1447,0.471881753 4.64986667,0.471881753 L12.6161,0.488405876 C12.6163333,0.488405876 12.6163333,0.488405876 12.6165667,0.488405876 C13.1222,0.488405876 13.5335667,0.904577727 13.5335667,1.41611738 L13.5335667,6.40687476 L13.5333333,6.40687476 Z" id="Shape"></path>
                </g>
            </g>
        </g>
    </g>
</svg>