<?xml version="1.0" encoding="UTF-8"?>
<svg width="17px" height="17px" viewBox="0 0 17 17" version="1.1" xmlns="http://www.w3.org/2000/svg" xmlns:xlink="http://www.w3.org/1999/xlink">
    <title>DA51D90E-E836-48FF-A241-4FFEC55ACB6B</title>
    <g id="Page-1" stroke="none" stroke-width="1" fill="none" fill-rule="evenodd">
        <g id="UI-Kit-module-8" transform="translate(-1027.000000, -566.000000)" fill="#FFFFFF" fill-rule="nonzero">
            <g id="atoms/icon/a-icon-attach" transform="translate(1027.000000, 566.000000)">
                <g id="link">
                    <path d="M14.9,1.16875 C13.5,-0.31875 11.2,-0.31875 9.8,1.16875 L5.4,5.7375 C4,7.33125 4,9.66875 5.4,11.2625 C5.5,11.36875 5.7,11.475 5.8,11.58125 L7.3,9.9875 C7.2,9.88125 7,9.775 6.9,9.66875 C6.3,9.03125 6.3,7.96875 6.9,7.33125 L11.3,2.65625 C11.9,2.01875 12.9,2.01875 13.5,2.65625 C14.1,3.29375 14.1,4.35625 13.5,4.99375 L12.2,6.375 C12.6,7.225 12.7,8.18125 12.6,9.03125 L14.9,6.5875 C16.4,5.1 16.4,2.65625 14.9,1.16875 L14.9,1.16875 Z" id="Path"></path>
                    <path d="M10.2,5.41875 L8.7,7.0125 C8.7,7.0125 9,7.225 9.1,7.33125 C9.7,7.96875 9.7,9.03125 9.1,9.66875 L4.7,14.34375 C4.1,14.98125 3.1,14.98125 2.5,14.34375 C1.9,13.70625 1.9,12.64375 2.5,12.00625 L3.8,10.625 C3.4,9.775 3.7,9.24375 3.4,7.96875 L1.1,10.4125 C-0.3,11.9 -0.3,14.34375 1.1,15.83125 C2.5,17.31875 4.8,17.31875 6.2,15.83125 L10.6,11.15625 C12,9.66875 12,7.225 10.6,5.7375 C10.4,5.63125 10.2,5.41875 10.2,5.41875 Z" id="Path"></path>
                </g>
            </g>
        </g>
    </g>
</svg>