<?xml version="1.0" encoding="UTF-8"?>
<svg width="36px" height="40px" viewBox="0 0 36 40" version="1.1" xmlns="http://www.w3.org/2000/svg" xmlns:xlink="http://www.w3.org/1999/xlink">
    <title>C8F833D7-3A94-4B59-81E5-8495367F592F</title>
    <g id="Page-1" stroke="none" stroke-width="1" fill="none" fill-rule="evenodd">
        <g id="UI-Kit-module-8" transform="translate(-767.000000, -543.000000)" fill="#D8D8D8" fill-rule="nonzero">
            <g id="atoms/icon/a-icon-text" transform="translate(767.000000, 543.000000)">
                <g id="archives-(1)">
                    <path d="M27.0856913,0.266487639 L27.0771088,0.257885508 C26.9153815,0.0906815504 26.6922355,-0.00232897148 26.4599705,4.43295102e-05 L14.2714228,4.43295102e-05 C11.9047874,0.00116564084 9.98632155,1.92374194 9.98578518,4.29577959 L9.98578518,6.09147446 L4.28563761,6.09147446 C1.91900223,6.09201213 0.000536374414,8.01458843 0,10.3868949 L0,35.7045796 C0.000536374414,38.0766172 1.91900223,39.9991935 4.28563761,40 L21.7285772,40 C24.0952126,39.9991935 26.0134103,38.0766172 26.0142148,35.7045796 L26.0142148,33.9088847 L31.7143624,33.9088847 C34.0809978,33.9083471 35.9991954,31.9855019 36,29.6134643 L36,9.5449613 C35.9983908,9.31700483 35.909347,9.09845695 35.7513745,8.93474759 L27.0856913,0.266487639 Z M27.3171517,2.92992248 L33.0856913,8.70302772 L29.8886952,8.70302772 C28.4701623,8.69899545 27.3211747,7.54711635 27.3171517,6.12561419 L27.3171517,2.92992248 Z M21.7285772,38.2819931 L4.28563761,38.2819931 C2.8671047,38.277692 1.71811717,37.1260817 1.71409416,35.7045796 L1.71409416,10.3868949 C1.71811717,8.96512392 2.8671047,7.81351355 4.28563761,7.80948135 L10.5428456,7.80948135 C10.7370256,7.87802953 10.9486388,7.87802953 11.1428188,7.80948135 L15.6258549,7.80948135 L15.6258549,12.2164606 C15.6263913,14.5887671 17.544589,16.5113434 19.9114926,16.5121498 L24.308435,16.5121498 L24.308435,35.7045796 C24.3003889,37.1279635 23.1484511,38.2782297 21.7285772,38.2819931 Z M23.1084887,14.7938741 L19.9114926,14.7938741 C18.4929597,14.7898419 17.3439721,13.6385004 17.3399491,12.2164606 L17.3399491,9.0207689 L23.1084887,14.7938741 Z M31.7143624,32.190609 L26.0142148,32.190609 L26.0142148,15.6358077 C26.0126056,15.4078512 25.9235618,15.189841 25.7655894,15.0261317 L17.1084887,6.35760286 L17.0999061,6.34900073 C16.9381789,6.18206564 16.7150328,6.08878626 16.4830361,6.09147446 L11.6998793,6.09147446 L11.6998793,4.29577959 C11.7039024,2.87400863 12.8528899,1.72266713 14.2714228,1.71836606 L25.6116401,1.71836606 L25.6116401,6.12561419 C25.6121765,8.49765184 27.5303742,10.4202281 29.8972778,10.4210346 L34.2859058,10.4210346 L34.2859058,29.6134643 C34.2818828,31.0352353 33.1326271,32.1865768 31.7143624,32.190609 L31.7143624,32.190609 Z" id="Shape"></path>
                    <path d="M5.17017688,21.7054264 L13.9067462,21.7054264 C14.3833256,21.7054264 14.7692308,21.2886263 14.7692308,20.7751938 C14.7692308,20.2611792 14.3833256,19.8449612 13.9067462,19.8449612 L5.17017688,19.8449612 C4.69413721,19.8449612 4.30769231,20.2611792 4.30769231,20.7751938 C4.30769231,21.2886263 4.69413721,21.7054264 5.17017688,21.7054264 Z" id="Path"></path>
                    <path d="M20.6866907,26.0465116 L5.15946312,26.0465116 C4.6893368,26.0465116 4.30769231,26.4630206 4.30769231,26.9767442 C4.30769231,27.4904677 4.6893368,27.9069767 5.15946312,27.9069767 L20.6866907,27.9069767 C21.1570835,27.9069767 21.5384615,27.4904677 21.5384615,26.9767442 C21.5384615,26.4630206 21.1570835,26.0465116 20.6866907,26.0465116 Z" id="Path"></path>
                    <path d="M20.6866907,32.248062 L5.15946312,32.248062 C4.6893368,32.248062 4.30769231,32.6648621 4.30769231,33.1782946 C4.30769231,33.6920182 4.6893368,34.1085271 5.15946312,34.1085271 L20.6866907,34.1085271 C21.1570835,34.1085271 21.5384615,33.6920182 21.5384615,33.1782946 C21.5384615,32.6648621 21.1570835,32.248062 20.6866907,32.248062 Z" id="Path"></path>
                    <path d="M30.839257,19.8449612 L28.2373991,19.8449612 C27.7662995,19.8449612 27.3846154,20.2611792 27.3846154,20.7751938 C27.3846154,21.2886263 27.7662995,21.7054264 28.2373991,21.7054264 L30.839257,21.7054264 C31.3103566,21.7054264 31.6923077,21.2886263 31.6923077,20.7751938 C31.6923077,20.2611792 31.3103566,19.8449612 30.839257,19.8449612 L30.839257,19.8449612 Z" id="Path"></path>
                    <path d="M30.839257,26.0465116 L28.2373991,26.0465116 C27.7662995,26.0465116 27.3846154,26.4630206 27.3846154,26.9767442 C27.3846154,27.4904677 27.7662995,27.9069767 28.2373991,27.9069767 L30.839257,27.9069767 C31.3103566,27.9069767 31.6923077,27.4904677 31.6923077,26.9767442 C31.6923077,26.4630206 31.3103566,26.0465116 30.839257,26.0465116 L30.839257,26.0465116 Z" id="Path"></path>
                </g>
            </g>
        </g>
    </g>
</svg>