<?xml version="1.0" encoding="UTF-8"?>
<svg width="14px" height="14px" viewBox="0 0 14 14" version="1.1" xmlns="http://www.w3.org/2000/svg" xmlns:xlink="http://www.w3.org/1999/xlink">
    <title>49A71446-C03F-4479-9EA7-D4DDFF570727</title>
    <g id="Page-1" stroke="none" stroke-width="1" fill="none" fill-rule="evenodd">
        <g id="UI-Kit-module-8" transform="translate(-1135.000000, -569.000000)" fill="#818181" fill-rule="nonzero">
            <g id="atoms/icon/a-icon-time" transform="translate(1135.000000, 569.000000)">
                <g id="time">
                    <path d="M7,0 C3.1402,0 0,3.1402 0,7 C0,10.8598 3.1402,14 7,14 C10.8598,14 14,10.8598 14,7 C14,3.1402 10.8598,0 7,0 Z M7,13.5333333 C3.39756667,13.5333333 0.466666667,10.6024333 0.466666667,7 C0.466666667,3.39756667 3.39756667,0.466666667 7,0.466666667 C10.6024333,0.466666667 13.5333333,3.39756667 13.5333333,7 C13.5333333,10.6024333 10.6024333,13.5333333 7,13.5333333 Z" id="Shape"></path>
                    <path d="M7,1.4 C6.8712,1.4 6.76666667,1.5043 6.76666667,1.63333333 L6.76666667,7 L3.26666667,7 C3.13786667,7 3.03333333,7.1043 3.03333333,7.23333333 C3.03333333,7.36236667 3.13786667,7.46666667 3.26666667,7.46666667 L7,7.46666667 C7.1288,7.46666667 7.23333333,7.36236667 7.23333333,7.23333333 L7.23333333,1.63333333 C7.23333333,1.5043 7.1288,1.4 7,1.4 Z" id="Path"></path>
                </g>
            </g>
        </g>
    </g>
</svg>