<?xml version="1.0" encoding="UTF-8"?>
<svg width="40px" height="40px" viewBox="0 0 40 40" version="1.1" xmlns="http://www.w3.org/2000/svg" xmlns:xlink="http://www.w3.org/1999/xlink">
    <title>526F4CC5-C10A-4D87-B5B1-BFBD6C1CE287</title>
    <g id="Page-1" stroke="none" stroke-width="1" fill="none" fill-rule="evenodd">
        <g id="UI-Kit-module-8" transform="translate(-697.000000, -543.000000)" fill="#D8D8D8" fill-rule="nonzero">
            <g id="atoms/icon/a-icon-melody" transform="translate(697.000000, 543.000000)">
                <g id="music-player">
                    <path d="M36.7533333,0.180565348 C36.5966275,0.0431089882 36.3898627,-0.0194372919 36.1809216,0.0052903072 L13.6907255,2.92241972 C13.3294314,2.96969307 13.0588235,3.27733349 13.0588235,3.6431565 L13.0588235,8.01921426 L13.0588235,11.0825274 L13.0588235,29.543862 C11.7340784,27.9474773 9.62943137,26.9089181 7.25490196,26.9089181 C3.25454902,26.9089181 0,29.8449569 0,33.4544591 C0,37.0639612 3.25454902,40 7.25490196,40 C11.2552549,40 14.5098039,37.0639612 14.5098039,33.4544591 C14.5098039,33.2857296 14.4960196,33.1199092 14.4815098,32.9548161 C14.4909412,32.9075428 14.5098039,32.8646331 14.5098039,32.8151779 L14.5098039,11.7218086 L35.5490196,8.99231801 L35.5490196,22.2703114 C34.2242745,20.674654 32.1196275,19.6360949 29.745098,19.6360949 C25.7447451,19.6360949 22.4901961,22.5721336 22.4901961,26.1816358 C22.4901961,29.791138 25.7447451,32.7271767 29.745098,32.7271767 C33.7091765,32.7271767 36.9368824,29.842775 36.9949216,26.2783643 C36.9949216,26.2689097 37,26.2609096 37,26.2514549 L37,8.16467073 L37,5.10208485 L37,0.726754375 C37,0.517297065 36.9100392,0.318021708 36.7533333,0.180565348 Z M7.25490196,38.5454353 C4.05476471,38.5454353 1.45098039,36.2610416 1.45098039,33.4544591 C1.45098039,30.6478766 4.05476471,28.3634828 7.25490196,28.3634828 C10.4550392,28.3634828 13.0588235,30.6478766 13.0588235,33.4544591 C13.0588235,36.2610416 10.4550392,38.5454353 7.25490196,38.5454353 Z M29.745098,31.2726121 C26.5449608,31.2726121 23.9411765,28.9882183 23.9411765,26.1816358 C23.9411765,23.3750533 26.5449608,21.0906595 29.745098,21.0906595 C32.9452353,21.0906595 35.5490196,23.3750533 35.5490196,26.1816358 C35.5490196,28.9882183 32.9452353,31.2726121 29.745098,31.2726121 Z M14.5098039,10.2548801 L14.5098039,8.01921426 L14.5098039,4.28243767 L35.5490196,1.55367438 L35.5490196,5.10208485 L35.5490196,7.52538956 L14.5098039,10.2548801 Z" id="Shape"></path>
                </g>
            </g>
        </g>
    </g>
</svg>