<?xml version="1.0" encoding="UTF-8"?>
<svg width="24px" height="24px" viewBox="0 0 24 24" version="1.1" xmlns="http://www.w3.org/2000/svg" xmlns:xlink="http://www.w3.org/1999/xlink">
    <title>51016A0E-04E0-48D9-83AE-90CCC6E27E4F</title>
    <g id="Page-1" stroke="none" stroke-width="1" fill="none" fill-rule="evenodd">
        <g id="UI-Kit-module-8" transform="translate(-833.000000, -559.000000)" fill="#4D4949" fill-rule="nonzero">
            <g id="atoms/icon/a-icon-like" transform="translate(833.000000, 559.000000)">
                <g id="like">
                    <path d="M0,10.7057688 L0,22.2968245 C0,23.0267568 0.574069041,23.6147579 1.27208481,23.6147579 L5.0752922,23.6147579 C5.51236749,23.6147579 5.89073118,23.391723 6.1255776,23.0470327 C6.7322642,23.6350338 7.54117967,24 8.43490079,24 L18.6246263,24 C20.9078554,24 22.3625985,22.7564115 22.623539,20.5936489 L23.9934765,11.5641152 C24,11.530322 24,11.4965289 24,11.4627357 C24,9.53652528 22.4865453,7.96852241 20.6273444,7.96852241 L15.5324817,7.96852241 L15.5324817,4.17692928 C15.5324817,2.53458145 15.0693123,1.35182066 14.1494971,0.648922826 C12.694754,-0.452734361 10.7050829,0.175818513 10.6202772,0.202853045 C10.3528133,0.290715275 10.1701549,0.54754333 10.1701549,0.838164551 L10.1701549,5.15017243 C10.1701549,8.50921306 6.3995651,9.65818068 6.24300082,9.70549111 C6.16471867,9.72576701 6.08643653,9.76631881 6.02772493,9.82038787 C5.7928785,9.55004255 5.45365588,9.38107672 5.08181571,9.38107672 L1.27208481,9.38107672 C0.567545529,9.38107672 0,9.97583643 0,10.7057688 Z M6.35390052,11.0166659 C6.43218266,11.0234246 6.5104648,11.0166659 6.58874694,10.99639 C6.79097581,10.9355623 11.4618103,9.53652528 11.4618103,5.15693107 L11.4618103,1.37885519 C11.9641207,1.2977516 12.7926067,1.27071707 13.3862463,1.73030411 C13.9537918,2.16285663 14.2408263,2.98740986 14.2408263,4.17017064 L14.2408263,8.63086845 C14.2408263,9.00259327 14.5278608,9.29997312 14.886654,9.29997312 L20.6273444,9.29997312 C21.7624354,9.29997312 22.6822506,10.2394231 22.7083447,11.4086666 L21.3449307,20.39089 C21.3449307,20.3976486 21.3449307,20.4044072 21.3449307,20.4111659 C21.1687959,21.8980651 20.2555042,22.6482734 18.6246263,22.6482734 L8.43490079,22.6482734 C7.28676271,22.6482734 6.35390052,21.6817889 6.35390052,20.4922694 L6.35390052,11.0166659 L6.35390052,11.0166659 Z M1.29165534,10.7192861 L5.06224518,10.7192861 L5.06224518,22.2765486 L1.29165534,22.2765486 L1.29165534,10.7192861 Z" id="Shape"></path>
                </g>
            </g>
        </g>
    </g>
</svg>