<?xml version="1.0" encoding="UTF-8"?>
<svg width="45px" height="45px" viewBox="0 0 45 45" version="1.1" xmlns="http://www.w3.org/2000/svg" xmlns:xlink="http://www.w3.org/1999/xlink">
    <title>083F3301-0C2E-4921-B729-614340F65EEB</title>
    <g id="Page-1" stroke="none" stroke-width="1" fill="none" fill-rule="evenodd">
        <g id="UI-Kit-module-8" transform="translate(-482.000000, -538.000000)" fill="#4D4949" fill-rule="nonzero">
            <g id="atoms/icon/a-icon-mail" transform="translate(482.000000, 538.000000)">
                <g id="contact">
                    <path d="M29.7070293,17.2929707 C29.5210479,17.1069893 29.2630737,17 29,17 C28.7370263,17 28.4789521,17.1068893 28.2929707,17.2929707 C28.1069893,17.4789521 28,17.7369263 28,18 C28,18.2630737 28.1069893,18.5210479 28.2929707,18.7069293 C28.4789521,18.8929107 28.7369263,19 29,19 C29.2629737,19 29.5209479,18.8930107 29.7070293,18.7069293 C29.8930107,18.5210479 30,18.2630737 30,18 C30,17.7358264 29.8930107,17.4789521 29.7070293,17.2929707 Z" id="Path"></path>
                    <path d="M43.8959307,0.496771117 C43.8860493,0.489206968 43.8757268,0.48234646 43.8655807,0.475222087 C43.4364459,0.176174318 42.9150259,0 42.3527569,0 L17.6470666,0 C17.1200001,0 16.6290184,0.154889153 16.216029,0.420601892 C16.1832087,0.439776131 16.1515353,0.461061296 16.1210088,0.484633296 C15.4435158,0.963109726 15,1.74995718 15,2.6388327 L15,16.3610793 C15,17.8161227 16.1874436,19 17.6470666,19 L24.1764623,19 C24.6638267,19 25.0588178,18.6061365 25.0588178,18.1203598 C25.0588178,17.634671 24.6638267,17.2407196 24.1764623,17.2407196 L18.5125708,17.2407196 L25.7541327,8.80563747 L29.4835648,11.4887116 C29.6376969,11.5995352 29.8187382,11.655035 29.9999559,11.655035 C30.1806442,11.655035 30.3613326,11.5997991 30.5152882,11.4894153 L34.2501022,8.81073887 L41.4874292,17.2407196 L32.4706573,17.2407196 C31.983381,17.2407196 31.5883017,17.6345831 31.5883017,18.1203598 C31.5883017,18.6061365 31.9832928,19 32.4706573,19 L42.3529334,19 C43.8125564,19 45,17.8162106 45,16.3610793 L45,2.63892065 C45,1.75760928 44.5637188,0.976390966 43.8959307,0.496771117 Z M16.7850914,16.5475444 C16.7720339,16.4873831 16.7647111,16.4251987 16.7647111,16.3611673 L16.7647111,2.63892065 C16.7647111,2.54480856 16.7799743,2.45430263 16.8075893,2.36916197 L24.3184191,7.77277925 L16.7850914,16.5475444 Z M30.0008382,9.69134659 L18.9755847,1.75928043 L41.0603236,1.75928043 L30.0008382,9.69134659 Z M43.2351125,16.3611673 C43.2351125,16.4251108 43.2277897,16.4873831 43.2147321,16.5475444 L35.6874921,7.77981566 L43.1992042,2.3922942 C43.2222314,2.4706623 43.2351125,2.55325226 43.2351125,2.6388327 L43.2351125,16.3611673 Z" id="Shape"></path>
                    <path d="M38.9682278,38 C38.813596,38 38.6669074,38.0315442 38.5352796,38.0880371 L38.0316691,38.0880371 C37.4619352,38.0880371 37,38.5160828 37,39.0440185 C37,39.5718587 37.4618321,40 38.0316691,40 L38.9683309,40 C39.5380648,40 40,39.5719543 40,39.0440185 L40,38.9559815 C39.9998968,38.4281413 39.5380648,38 38.9682278,38 Z" id="Path"></path>
                    <path d="M39,34 C38.4477552,34 38,34.4477552 38,35 L38,36 C38,36.5522448 38.4476552,37 39,37 C39.5523448,37 40,36.5522448 40,36 L40,35 C40,34.4477552 39.5523448,34 39,34 Z" id="Path"></path>
                    <path d="M35,38 L34,38 C33.4477552,38 33,38.4477552 33,39 C33,39.5521448 33.4476552,40 34,40 L35,40 C35.5523448,40 36,39.5522448 36,39 C36,38.4478552 35.5522448,38 35,38 Z" id="Path"></path>
                    <path d="M39,21 C38.4477552,21 38,21.4477552 38,22 L38,23 C38,23.5521448 38.4476552,24 39,24 C39.5523448,24 40,23.5522448 40,23 L40,22 C40,21.4478552 39.5523448,21 39,21 Z" id="Path"></path>
                    <path d="M39,26 C38.4477552,26 38,26.4477552 38,27 L38,28 C38,28.5521448 38.4476552,29 39,29 C39.5523448,29 40,28.5522448 40,28 L40,27 C40,26.4477552 39.5523448,26 39,26 Z" id="Path"></path>
                    <path d="M39,30 C38.4477552,30 38,30.4477552 38,31 L38,32 C38,32.5522448 38.4476552,33 39,33 C39.5523448,33 40,32.5522448 40,32 L40,31 C40,30.4478552 39.5523448,30 39,30 Z" id="Path"></path>
                    <path d="M7,5 L6,5 C5.44775522,5 5,5.44775522 5,6 C5,6.55224478 5.44775522,7 6,7 L7,7 C7.55224478,7 8,6.55224478 8,6 C7.99990001,5.44775522 7.55224478,5 7,5 Z" id="Path"></path>
                    <path d="M11,5 L10,5 C9.44775522,5 9,5.44775522 9,6 C9,6.55224478 9.44775522,7 10,7 L11,7 C11.5522448,7 12,6.55224478 12,6 C12,5.44775522 11.5523448,5 11,5 Z" id="Path"></path>
                    <path d="M6,8 C5.44775522,8 5,8.44775522 5,9 L5,10 C5,10.5522448 5.44775522,11 6,11 C6.55224478,11 7,10.5522448 7,10 L7,9 C7,8.44785521 6.55224478,8 6,8 Z" id="Path"></path>
                    <path d="M6,12 C5.44775522,12 5,12.4477552 5,13 L5,14 C5,14.5522448 5.44775522,15 6,15 C6.55224478,15 7,14.5522448 7,14 L7,13 C7,12.4477552 6.55224478,12 6,12 Z" id="Path"></path>
                    <path d="M9.7070293,35.2929707 C9.5210479,35.1069893 9.26307369,35 9,35 C8.7360264,35 8.4789521,35.1069893 8.2919708,35.2929707 C8.1059894,35.4789521 8,35.7369263 8,36 C8,36.2630737 8.1059894,36.5209479 8.2919708,36.7070293 C8.4789521,36.8929107 8.73692631,37 9,37 C9.26307369,37 9.51994801,36.8930107 9.7070293,36.7070293 C9.8930107,36.5210479 10,36.2630737 10,36 C10,35.7369263 9.8930107,35.4790521 9.7070293,35.2929707 Z" id="Path"></path>
                    <path d="M27.0141731,36.6630367 L22.4413596,32.0899609 C21.1290644,30.7776772 18.9936557,30.7775904 17.6811869,32.0900477 L17.3832693,32.3880692 C16.9694997,32.8020361 16.2960828,32.8019493 15.8822264,32.3880692 L12.6112945,29.1169497 C12.4108315,28.9164751 12.3004466,28.6499568 12.3004466,28.3664286 C12.3004466,28.0829003 12.4108315,27.816382 12.6113813,27.6159075 L12.9092988,27.317886 C14.2216809,26.0054287 14.2216809,23.8698977 12.9092988,22.5574404 L8.33639855,17.9842779 C7.02401651,16.6719074 4.8885211,16.6719074 3.57631263,17.9842779 L2.48209687,19.0784696 C-0.827365622,22.3882086 -0.827365622,27.77351 2.48209687,31.0831622 L5.46517776,34.0664142 C5.80405575,34.4052248 6.35363688,34.4052248 6.69260165,34.0664142 C7.03147964,33.7275167 7.03147964,33.1779041 6.69260165,32.8389199 L3.70952075,29.8556679 C1.07677288,27.2227691 1.07677288,22.9387759 3.70952075,20.3058771 L4.80364974,19.2116854 C5.43923038,18.5759815 6.47339402,18.5759815 7.10897466,19.2116854 L11.6817882,23.7847611 C12.3174556,24.4203782 12.3174556,25.4546011 11.6817882,26.0902182 L11.3838706,26.3882396 C11.2744403,26.4976762 11.1758577,26.6149234 11.0872547,26.7381588 L7.47536208,23.1260591 C7.13648409,22.7872484 6.58690296,22.7872484 6.24793819,23.1260591 C5.9090602,23.4649565 5.9090602,24.0145691 6.24793819,24.3535533 L10.5837541,28.689531 C10.6552612,29.3142999 10.932525,29.8928121 11.3838706,30.3441836 L14.6548025,33.6153031 C15.7454603,34.7058498 17.5199487,34.7059366 18.6106064,33.6152163 L18.9086108,33.3171948 C19.5441914,32.681491 20.5783551,32.681491 21.2139357,33.3171948 L25.786836,37.8902706 C26.0946466,38.1981856 26.2643025,38.6076396 26.2643025,39.0429557 C26.2643025,39.4782719 26.0947334,39.8877259 25.7867492,40.1956409 L25.1654006,40.8170251 L21.0033194,36.6547052 C20.6644414,36.3158946 20.1148602,36.3158946 19.7758955,36.6547052 C19.4370175,36.9936027 19.4370175,37.5432153 19.7758955,37.8821995 L23.8778378,41.9843771 C21.2394492,43.8970429 17.5190809,43.6661067 15.1432034,41.2899194 L12.8957611,39.0423482 C12.5568831,38.7036244 12.007302,38.7035376 11.668424,39.0423482 C11.329546,39.3812457 11.329546,39.9308583 11.668424,40.2698425 L13.9158663,42.5174137 C15.5705975,44.1725002 17.7442764,45 19.9179552,45 C22.091634,45 24.2652261,44.1725869 25.9200441,42.517674 L27.0140863,41.4234823 C27.6499273,40.7876916 28,39.9424876 28,39.0433029 C28,38.1441182 27.6498405,37.2988273 27.0141731,36.6630367 Z" id="Path"></path>
                </g>
            </g>
        </g>
    </g>
</svg>