<?xml version="1.0" encoding="UTF-8"?>
<svg width="14px" height="23px" viewBox="0 0 14 23" version="1.1" xmlns="http://www.w3.org/2000/svg" xmlns:xlink="http://www.w3.org/1999/xlink">
    <title>445563F3-FDBF-44B1-8C77-40546C65A45F</title>
    <g id="Page-1" stroke="none" stroke-width="1" fill="none" fill-rule="evenodd">
        <g id="UI-Kit-module-8" transform="translate(-887.000000, -560.000000)" fill="#4D4949" fill-rule="nonzero">
            <g id="atoms/icon/a-icon-facebook" transform="translate(887.000000, 560.000000)">
                <g id="facebook">
                    <path d="M8.64757912,23 L4.69752935,23 C4.03774499,23 3.50103504,22.4995422 3.50103504,21.8843231 L3.50103504,13.5765838 L1.19649437,13.5765838 C0.536709951,13.5765838 0,13.0759506 0,12.460907 L0,8.90102385 C0,8.28580476 0.536709951,7.785347 1.19649437,7.785347 L3.50103504,7.785347 L3.50103504,6.00268555 C3.50103504,4.23511506 4.09627122,2.73128508 5.22219537,1.65403745 C6.35320054,0.571876537 7.93378501,0 9.79307474,0 L12.8055758,0.00456235547 C13.464231,0.00561523438 14,0.506072998 14,1.12023926 L14,4.42550659 C14,5.04072573 13.4634783,5.54118345 12.8038821,5.54118345 L10.7756002,5.5418854 C10.1570288,5.5418854 9.99951611,5.6575241 9.96583058,5.69297029 C9.91031539,5.75175474 9.84426166,5.91793059 9.84426166,6.37680054 L9.84426166,7.78517153 L12.6514504,7.78517153 C12.8627847,7.78517153 13.0675324,7.83377839 13.2434874,7.92537688 C13.623061,8.12313843 13.8590478,8.49707795 13.8590478,8.90119936 L13.8575423,12.4610824 C13.8575423,13.0759506 13.3208323,13.5764084 12.661048,13.5764084 L9.84426166,13.5764084 L9.84426166,21.8843231 C9.84426166,22.4995422 9.30736349,23 8.64757912,23 L8.64757912,23 Z M4.94706563,21.6516418 L8.39804284,21.6516418 L8.39804284,12.9729461 C8.39804284,12.5621567 8.75653953,12.2280502 9.19689763,12.2280502 L12.4115117,12.2280502 L12.412829,9.13370515 L9.19670945,9.13370515 C8.75635131,9.13370515 8.39804284,8.79959871 8.39804284,8.38880923 L8.39804284,6.37680054 C8.39804284,5.85002134 8.45543998,5.25094604 8.8818722,4.80067446 C9.39712883,4.25634766 10.2091566,4.1935272 10.7752238,4.1935272 L12.5539695,4.19282534 L12.5539695,1.35256958 L9.79194559,1.34835815 C6.80390894,1.34835815 4.94706563,3.13189697 4.94706563,6.00268555 L4.94706563,8.38880923 C4.94706563,8.7994232 4.58875717,9.13370515 4.14839907,9.13370515 L1.4460306,9.13370515 L1.4460306,12.2280502 L4.14839907,12.2280502 C4.58875717,12.2280502 4.94706563,12.5621567 4.94706563,12.9729461 L4.94706563,21.6516418 Z" id="Shape"></path>
                </g>
            </g>
        </g>
    </g>
</svg>