<?xml version="1.0" encoding="UTF-8"?>
<svg width="65px" height="65px" viewBox="0 0 65 65" version="1.1" xmlns="http://www.w3.org/2000/svg" xmlns:xlink="http://www.w3.org/1999/xlink">
    <title>A38DE6C0-3ACA-47B4-B9A5-958E4B743230</title>
    <g id="Page-1" stroke="none" stroke-width="1" fill="none" fill-rule="evenodd">
        <g id="UI-Kit-module-8" transform="translate(-387.000000, -518.000000)" fill="#4D4949" fill-rule="nonzero">
            <g id="atoms/icon/a-icon-iconset" transform="translate(387.000000, 518.000000)">
                <g id="atoms/icons/a-icon-iconset" transform="translate(0.000000, 5.000000)">
                    <g id="scale">
                        <path d="M34.8501205,39.3266229 L7.55271912,39.3266229 C6.89439766,39.3266229 6.36067386,39.8578136 6.36067386,40.5136275 C6.36067386,41.1688244 6.89439766,41.7006321 7.55271912,41.7006321 L34.8501205,41.7006321 C35.5084418,41.7006321 36.0427856,41.1688244 36.0427856,40.5136275 C36.0427856,39.8578136 35.5084418,39.3266229 34.8501205,39.3266229 Z" id="Path"></path>
                        <path d="M49.532175,6.40945474 C48.8732337,6.40945474 48.3395099,6.94064544 48.3395099,7.59584245 L48.3395099,30.4796134 L37.7815723,15.7685297 C37.3135566,15.1170344 36.3080978,15.1170344 35.840702,15.7685297 L23.8849163,32.4273127 L14.6987915,24.4273705 C14.2493725,24.0362266 13.5780334,24.0362266 13.1279945,24.4273705 L7.3128223,29.4918825 C6.81753167,29.9237449 6.76732059,30.6733346 7.20062256,31.1668916 C7.63454437,31.6598316 8.3877087,31.7098044 8.88361935,31.2785589 L13.913393,26.8982404 L23.3047009,35.0764801 C23.8278866,35.5317864 24.6572971,35.4355428 25.0608444,34.8728878 L36.8108273,18.5003678 L48.3395099,34.5637977 L48.3395099,39.3266229 L40.5741692,39.3266229 C39.9158478,39.3266229 39.381504,39.8578136 39.381504,40.5136275 C39.381504,41.1688244 39.9158478,41.7006321 40.5741692,41.7006321 L49.532175,41.7006321 C50.1904965,41.7006321 50.7242203,41.1688244 50.7242203,40.5136275 L50.7242203,7.59645936 C50.7242203,6.94064544 50.1904965,6.40945474 49.532175,6.40945474 Z" id="Path"></path>
                        <path d="M24.0900994,21.4438185 C26.8523217,21.4438185 29.0987969,19.2073881 29.0987969,16.4582756 C29.0987969,13.70978 26.8523217,11.4733497 24.0900994,11.4733497 C21.328497,11.4733497 19.0814019,13.70978 19.0814019,16.4582756 C19.0814019,19.2073881 21.328497,21.4438185 24.0900994,21.4438185 Z M24.0900994,13.8473589 C25.5369186,13.8473589 26.7140866,15.0189399 26.7140866,16.4582756 C26.7140866,17.8982282 25.5369186,19.0698092 24.0900994,19.0698092 C22.64328,19.0698092 21.4667321,17.8982282 21.4667321,16.4582756 C21.4667321,15.0189399 22.64328,13.8473589 24.0900994,13.8473589 Z" id="Shape"></path>
                        <path d="M11.8516446,50.7210035 L9.89899631,50.7210035 C9.240055,50.7210035 8.70633121,51.2521942 8.70633121,51.9080081 C8.70633121,52.5632051 9.240055,53.0950127 9.89899631,53.0950127 L11.8516446,53.0950127 C12.5105859,53.0950127 13.0443097,52.5632051 13.0443097,51.9080081 C13.0443097,51.2521942 12.5105859,50.7210035 11.8516446,50.7210035 Z" id="Path"></path>
                        <path d="M19.0132141,50.7210035 L17.059946,50.7210035 C16.4016247,50.7210035 15.8672809,51.2521942 15.8672809,51.9080081 C15.8672809,52.5632051 16.4016247,53.0950127 17.059946,53.0950127 L19.0132141,53.0950127 C19.6715356,53.0950127 20.2058792,52.5632051 20.2058792,51.9080081 C20.2058792,51.2521942 19.6715356,50.7210035 19.0132141,50.7210035 Z" id="Path"></path>
                        <path d="M40.4960632,50.7210035 L38.543415,50.7210035 C37.8844738,50.7210035 37.35075,51.2521942 37.35075,51.9080081 C37.35075,52.5632051 37.8844738,53.0950127 38.543415,53.0950127 L40.4960632,53.0950127 C41.1550045,53.0950127 41.6887283,52.5632051 41.6887283,51.9080081 C41.6887283,51.2521942 41.1550045,50.7210035 40.4960632,50.7210035 Z" id="Path"></path>
                        <path d="M54.8185825,50.7210035 L52.8653144,50.7210035 C52.2069931,50.7210035 51.6732693,51.2521942 51.6732693,51.9080081 C51.6732693,52.5632051 52.2069931,53.0950127 52.8653144,53.0950127 L54.8185825,53.0950127 C55.4775238,53.0950127 56.0112476,52.5632051 56.0112476,51.9080081 C56.0112476,51.2521942 55.4775238,50.7210035 54.8185825,50.7210035 L54.8185825,50.7210035 Z" id="Path"></path>
                        <path d="M26.1741638,50.7210035 L24.2208957,50.7210035 C23.5625744,50.7210035 23.0288506,51.2521942 23.0288506,51.9080081 C23.0288506,52.5632051 23.5625744,53.0950127 24.2208957,53.0950127 L26.1741638,53.0950127 C26.8324853,53.0950127 27.3668289,52.5632051 27.3668289,51.9080081 C27.3668289,51.2521942 26.8324853,50.7210035 26.1741638,50.7210035 Z" id="Path"></path>
                        <path d="M47.6576328,50.7210035 L45.7043647,50.7210035 C45.0460434,50.7210035 44.5116998,51.2521942 44.5116998,51.9080081 C44.5116998,52.5632051 45.0460434,53.0950127 45.7043647,53.0950127 L47.6576328,53.0950127 C48.3165741,53.0950127 48.8502979,52.5632051 48.8502979,51.9080081 C48.8502979,51.2521942 48.3159542,50.7210035 47.6576328,50.7210035 L47.6576328,50.7210035 Z" id="Path"></path>
                        <path d="M33.3351135,50.7210035 L31.3824653,50.7210035 C30.7235241,50.7210035 30.1898003,51.2521942 30.1898003,51.9080081 C30.1898003,52.5632051 30.7235241,53.0950127 31.3824653,53.0950127 L33.3351135,53.0950127 C33.9940548,53.0950127 34.5277786,52.5632051 34.5277786,51.9080081 C34.5277786,51.2521942 33.9940548,50.7210035 33.3351135,50.7210035 Z" id="Path"></path>
                        <path d="M3.73668671,42.9024435 C3.07836541,42.9024435 2.54402161,43.4336342 2.54402161,44.0894481 L2.54402161,45.962497 C2.54402161,46.6183109 3.07836541,47.1495016 3.73668671,47.1495016 C4.39562802,47.1495016 4.92935181,46.6183109 4.92935181,45.962497 L4.92935181,44.0894481 C4.92935181,43.4336342 4.39562802,42.9024435 3.73668671,42.9024435 Z" id="Path"></path>
                        <path d="M4.92935181,37.2203683 C4.92935181,36.5645545 4.39562802,36.0333638 3.73668671,36.0333638 C3.07836541,36.0333638 2.54402161,36.5645545 2.54402161,37.2203683 L2.54402161,39.0934173 C2.54402161,39.7492311 3.07836541,40.2804218 3.73668671,40.2804218 C4.39562802,40.2804218 4.92935181,39.7492311 4.92935181,39.0934173 L4.92935181,37.2203683 Z" id="Path"></path>
                        <path d="M4.92935181,30.3506717 C4.92935181,29.6954747 4.39562802,29.1636671 3.73668671,29.1636671 C3.07836541,29.1636671 2.54402161,29.6954747 2.54402161,30.3506717 L2.54402161,32.2243375 C2.54402161,32.8795345 3.07836541,33.4113421 3.73668671,33.4113421 C4.39562802,33.4113421 4.92935181,32.8795345 4.92935181,32.2243375 L4.92935181,30.3506717 Z" id="Path"></path>
                        <path d="M4.92935181,9.74343237 C4.92935181,9.08761845 4.39562802,8.55642775 3.73668671,8.55642775 C3.07836541,8.55642775 2.54402161,9.08761845 2.54402161,9.74343237 L2.54402161,11.6164812 C2.54402161,12.2722952 3.07836541,12.8034859 3.73668671,12.8034859 C4.39562802,12.8034859 4.92935181,12.2722952 4.92935181,11.6164812 L4.92935181,9.74343237 Z" id="Path"></path>
                        <path d="M4.92935181,16.6125122 C4.92935181,15.9566983 4.39562802,15.4255076 3.73668671,15.4255076 C3.07836541,15.4255076 2.54402161,15.9566983 2.54402161,16.6125122 L2.54402161,18.486178 C2.54402161,19.1413748 3.07836541,19.6725657 3.73668671,19.6725657 C4.39562802,19.6725657 4.92935181,19.1413748 4.92935181,18.486178 L4.92935181,16.6125122 Z" id="Path"></path>
                        <path d="M4.92935181,23.4815919 C4.92935181,22.826395 4.39562802,22.2945872 3.73668671,22.2945872 C3.07836541,22.2945872 2.54402161,22.826395 2.54402161,23.4815919 L2.54402161,25.3552576 C2.54402161,26.0104547 3.07836541,26.5422624 3.73668671,26.5422624 C4.39562802,26.5422624 4.92935181,26.0104547 4.92935181,25.3552576 L4.92935181,23.4815919 Z" id="Path"></path>
                        <path d="M38.543415,4.98492584 L40.4960632,4.98492584 C41.1550045,4.98492584 41.6887283,4.45373515 41.6887283,3.79792123 C41.6887283,3.14272437 41.1550045,2.61091661 40.4960632,2.61091661 L38.543415,2.61091661 C37.8844738,2.61091661 37.35075,3.14272437 37.35075,3.79792123 C37.35075,4.45373515 37.8844738,4.98492584 38.543415,4.98492584 Z" id="Path"></path>
                        <path d="M24.2208957,4.98492584 L26.1741638,4.98492584 C26.8324853,4.98492584 27.3668289,4.45373515 27.3668289,3.79792123 C27.3668289,3.14272437 26.8324853,2.61091661 26.1741638,2.61091661 L24.2208957,2.61091661 C23.5625744,2.61091661 23.0288506,3.14272437 23.0288506,3.79792123 C23.0288506,4.45373515 23.5625744,4.98492584 24.2208957,4.98492584 Z" id="Path"></path>
                        <path d="M45.7043647,4.98492584 L47.6576328,4.98492584 C48.3165741,4.98492584 48.8502979,4.45373515 48.8502979,3.79792123 C48.8502979,3.14272437 48.3165741,2.61091661 47.6576328,2.61091661 L45.7043647,2.61091661 C45.0460434,2.61091661 44.5116998,3.14272437 44.5116998,3.79792123 C44.5116998,4.45373515 45.0460434,4.98492584 45.7043647,4.98492584 L45.7043647,4.98492584 Z" id="Path"></path>
                        <path d="M31.3824653,4.98492584 L33.3351135,4.98492584 C33.9940548,4.98492584 34.5277786,4.45373515 34.5277786,3.79792123 C34.5277786,3.14272437 33.9940548,2.61091661 33.3351135,2.61091661 L31.3824653,2.61091661 C30.7235241,2.61091661 30.1898003,3.14272437 30.1898003,3.79792123 C30.1898003,4.45373515 30.7235241,4.98492584 31.3824653,4.98492584 Z" id="Path"></path>
                        <path d="M54.8185825,2.61091661 L52.8653144,2.61091661 C52.2069931,2.61091661 51.6732693,3.14272437 51.6732693,3.79792123 C51.6732693,4.45373515 52.2069931,4.98492584 52.8653144,4.98492584 L54.8185825,4.98492584 C55.4775238,4.98492584 56.0112476,4.45373515 56.0112476,3.79792123 C56.0112476,3.14272437 55.4775238,2.61091661 54.8185825,2.61091661 L54.8185825,2.61091661 Z" id="Path"></path>
                        <path d="M17.059946,4.98492584 L19.0132141,4.98492584 C19.6715356,4.98492584 20.2058792,4.45373515 20.2058792,3.79792123 C20.2058792,3.14272437 19.6715356,2.61091661 19.0132141,2.61091661 L17.059946,2.61091661 C16.4016247,2.61091661 15.8672809,3.14272437 15.8672809,3.79792123 C15.8672809,4.45373515 16.4016247,4.98492584 17.059946,4.98492584 Z" id="Path"></path>
                        <path d="M9.89899631,4.98492584 L11.8516446,4.98492584 C12.5105859,4.98492584 13.0443097,4.45373515 13.0443097,3.79792123 C13.0443097,3.14272437 12.5105859,2.61091661 11.8516446,2.61091661 L9.89899631,2.61091661 C9.240055,2.61091661 8.70633121,3.14272437 8.70633121,3.79792123 C8.70633121,4.45373515 9.240055,4.98492584 9.89899631,4.98492584 Z" id="Path"></path>
                        <path d="M62.1735572,37.2203683 C62.1735572,36.5645545 61.6392136,36.0333638 60.9808923,36.0333638 C60.321951,36.0333638 59.788227,36.5645545 59.788227,37.2203683 L59.788227,39.0934173 C59.788227,39.7492311 60.321951,40.2804218 60.9808923,40.2804218 C61.6392136,40.2804218 62.1735572,39.7492311 62.1735572,39.0934173 L62.1735572,37.2203683 Z" id="Path"></path>
                        <path d="M62.1735572,30.3506717 C62.1735572,29.6954747 61.6392136,29.1636671 60.9808923,29.1636671 C60.321951,29.1636671 59.788227,29.6954747 59.788227,30.3506717 L59.788227,32.2243375 C59.788227,32.8795345 60.321951,33.4113421 60.9808923,33.4113421 C61.6392136,33.4113421 62.1735572,32.8795345 62.1735572,32.2243375 L62.1735572,30.3506717 Z" id="Path"></path>
                        <path d="M62.1735572,23.4815919 C62.1735572,22.826395 61.6392136,22.2945872 60.9808923,22.2945872 C60.321951,22.2945872 59.788227,22.826395 59.788227,23.4815919 L59.788227,25.3552576 C59.788227,26.0104547 60.321951,26.5416454 60.9808923,26.5416454 C61.6392136,26.5416454 62.1735572,26.0104547 62.1735572,25.3552576 L62.1735572,23.4815919 Z" id="Path"></path>
                        <path d="M60.9808923,42.9024435 C60.321951,42.9024435 59.788227,43.4336342 59.788227,44.0894481 L59.788227,45.962497 C59.788227,46.6183109 60.321951,47.1495016 60.9808923,47.1495016 C61.6392136,47.1495016 62.1735572,46.6183109 62.1735572,45.962497 L62.1735572,44.0894481 C62.1735572,43.4336342 61.6392136,42.9024435 60.9808923,42.9024435 Z" id="Path"></path>
                        <path d="M62.1735572,16.6125122 C62.1735572,15.9566983 61.6392136,15.4255076 60.9808923,15.4255076 C60.321951,15.4255076 59.788227,15.9566983 59.788227,16.6125122 L59.788227,18.486178 C59.788227,19.1413748 60.321951,19.6725657 60.9808923,19.6725657 C61.6392136,19.6725657 62.1735572,19.1413748 62.1735572,18.486178 L62.1735572,16.6125122 Z" id="Path"></path>
                        <path d="M62.1735572,9.74343237 C62.1735572,9.08761845 61.6392136,8.55642775 60.9808923,8.55642775 C60.321951,8.55642775 59.788227,9.08761845 59.788227,9.74343237 L59.788227,11.6164812 C59.788227,12.2722952 60.321951,12.8034859 60.9808923,12.8034859 C61.6392136,12.8034859 62.1735572,12.2722952 62.1735572,11.6164812 L62.1735572,9.74343237 Z" id="Path"></path>
                        <path d="M1.1926651,7.51687333 L6.28070831,7.51687333 C6.93964962,7.51687333 7.47337341,6.98568263 7.47337341,6.32986871 L7.47337341,1.26597374 C7.47337341,0.610159819 6.93964962,0.0789691223 6.28070831,0.0789691223 L1.1926651,0.0789691223 C0.533723792,0.0789691223 0,0.610159819 0,1.26597374 L0,6.32986871 C0,6.98568263 0.533723792,7.51687333 1.1926651,7.51687333 Z M2.3853302,2.45297836 L5.08804321,2.45297836 L5.08804321,5.14286409 L2.3853302,5.14286409 L2.3853302,2.45297836 Z" id="Shape"></path>
                        <path d="M58.4362506,7.51687333 L63.5249139,7.51687333 C64.183855,7.51687333 64.7175788,6.98568263 64.7175788,6.32986871 L64.7175788,1.26597374 C64.7175788,0.610159819 64.183855,0.0789691223 63.5249139,0.0789691223 L58.4362506,0.0789691223 C57.7779293,0.0789691223 57.2442054,0.610159819 57.2442054,1.26597374 L57.2442054,6.32986871 C57.2442054,6.98568263 57.7779293,7.51687333 58.4362506,7.51687333 L58.4362506,7.51687333 Z M59.6289157,2.45297836 L62.3322486,2.45297836 L62.3322486,5.14286409 L59.6289157,5.14286409 L59.6289157,2.45297836 Z" id="Shape"></path>
                        <path d="M6.28070831,48.189056 L1.1926651,48.189056 C0.533723792,48.189056 0,48.7202467 0,49.3760606 L0,54.4399556 C0,55.0957695 0.533723792,55.6269602 1.1926651,55.6269602 L6.28070831,55.6269602 C6.93964962,55.6269602 7.47337341,55.0957695 7.47337341,54.4399556 L7.47337341,49.3760606 C7.47337341,48.7202467 6.93964962,48.189056 6.28070831,48.189056 Z M5.08804321,53.252951 L2.3853302,53.252951 L2.3853302,50.5624483 L5.08804321,50.5624483 L5.08804321,53.252951 Z" id="Shape"></path>
                        <path d="M63.7807083,48.189056 L58.6926651,48.189056 C58.0337238,48.189056 57.5,48.7202467 57.5,49.3760606 L57.5,54.4399556 C57.5,55.0957695 58.0337238,55.6269602 58.6926651,55.6269602 L63.7807083,55.6269602 C64.4396496,55.6269602 64.9733734,55.0957695 64.9733734,54.4399556 L64.9733734,49.3760606 C64.9733734,48.7202467 64.4396496,48.189056 63.7807083,48.189056 Z M62.5880432,53.252951 L59.8853302,53.252951 L59.8853302,50.5624483 L62.5880432,50.5624483 L62.5880432,53.252951 Z" id="Shape"></path>
                    </g>
                </g>
            </g>
        </g>
    </g>
</svg>