<?xml version="1.0" encoding="UTF-8"?>
<svg width="65px" height="65px" viewBox="0 0 65 65" version="1.1" xmlns="http://www.w3.org/2000/svg" xmlns:xlink="http://www.w3.org/1999/xlink">
    <title>5AD6B95C-69AB-4AD5-954B-FF29D10CE9CE</title>
    <g id="Page-1" stroke="none" stroke-width="1" fill="none" fill-rule="evenodd">
        <g id="UI-Kit-module-8" transform="translate(-292.000000, -518.000000)" fill="#4D4949" fill-rule="nonzero">
            <g id="atoms/icon/a-icon-typography" transform="translate(292.000000, 518.000000)">
                <g id="atoms/icons/typography-icon">
                    <g id="font-adjustment">
                        <path d="M37.1130246,49.6770662 L37.1130246,21.1331663 L45.1015409,21.1331663 L47.9397113,23.0260111 C48.5683027,23.4456418 49.4366197,22.9784396 49.4366197,22.2248069 L49.4366197,11.9493635 C49.4366197,11.4170635 49.0057143,10.9859155 48.4737137,10.9859155 L15.6107933,10.9859155 C15.0787927,10.9859155 14.6478873,11.4170635 14.6478873,11.9493635 L14.6478873,22.2248069 C14.6478873,22.9789403 15.5162043,23.4456418 16.1447958,23.0260111 L18.9829661,21.1331663 L26.9714825,21.1331663 L26.9714825,24.2798956 C26.9714825,24.8121957 27.4028883,25.2433436 27.9343885,25.2433436 C28.4658886,25.2433436 28.8972945,24.8121957 28.8972945,24.2798956 L28.8972945,20.1697182 C28.8972945,19.6374182 28.4658886,19.2062702 27.9343885,19.2062702 L18.6916921,19.2062702 C18.5015132,19.2062702 18.3158384,19.2623545 18.1576896,19.3680134 L16.5736993,20.4246013 L16.5736993,12.9128115 L47.5108077,12.9128115 L47.5108077,20.4246013 L45.9268174,19.3680134 C45.7686686,19.2623545 45.5829939,19.2062702 45.3928149,19.2062702 L36.1501186,19.2062702 C35.6186184,19.2062702 35.1872126,19.6374182 35.1872126,20.1697182 L35.1872126,49.9685042 C35.1872126,50.1582895 35.2437658,50.3445694 35.3488647,50.5028072 L36.4053588,52.0876892 L27.6796488,52.0876892 L28.7356423,50.5028072 C28.8407413,50.3445694 28.8972945,50.1582895 28.8972945,49.9685042 L28.8972945,28.9038451 C28.8972945,28.3715452 28.4663891,27.9403972 27.9343885,27.9403972 C27.4028883,27.9403972 26.9714825,28.3715452 26.9714825,28.9038451 L26.9714825,49.6765654 L25.0797025,52.5168342 C24.6603079,53.1457794 25.1272473,54.0140845 25.8804559,54.0140845 L38.2040511,54.0140845 C38.9572598,54.0140845 39.4241992,53.1457794 39.005305,52.5168342 L37.1130246,49.6770662 Z" id="Path"></path>
                        <path d="M53.1640203,12.8169014 L53.9486557,12.8169014 C54.4906098,12.8169014 54.9295775,12.4072136 54.9295775,11.9014085 C54.9295775,11.3956033 54.4906098,10.9859155 53.9486557,10.9859155 L53.1640203,10.9859155 C52.6225759,10.9859155 52.1830986,11.3956033 52.1830986,11.9014085 C52.1830986,12.4072136 52.6225759,12.8169014 53.1640203,12.8169014 Z" id="Path"></path>
                        <path d="M57.7778365,12.8169014 L59.405262,12.8169014 C59.9673002,12.8169014 60.4225352,12.4072136 60.4225352,11.9014085 C60.4225352,11.3956033 59.9673002,10.9859155 59.405262,10.9859155 L57.7778365,10.9859155 C57.2163271,10.9859155 56.7605634,11.3956033 56.7605634,11.9014085 C56.7605634,12.4072136 57.2163271,12.8169014 57.7778365,12.8169014 Z" id="Path"></path>
                        <path d="M63.2344428,12.8169014 L64.0190783,12.8169014 C64.5610325,12.8169014 65,12.4072136 65,11.9014085 C65,11.3956033 64.5610325,10.9859155 64.0190783,10.9859155 L63.2344428,10.9859155 C62.6929986,10.9859155 62.2535211,11.3956033 62.2535211,11.9014085 C62.2535211,12.4072136 62.6929986,12.8169014 63.2344428,12.8169014 Z" id="Path"></path>
                        <path d="M53.1640203,22.8873239 L53.9486557,22.8873239 C54.4906098,22.8873239 54.9295775,22.4776361 54.9295775,21.971831 C54.9295775,21.4660259 54.4906098,21.056338 53.9486557,21.056338 L53.1640203,21.056338 C52.6225759,21.056338 52.1830986,21.4660259 52.1830986,21.971831 C52.1830986,22.4776361 52.6225759,22.8873239 53.1640203,22.8873239 Z" id="Path"></path>
                        <path d="M57.7778365,22.8873239 L59.405262,22.8873239 C59.9673002,22.8873239 60.4225352,22.4776361 60.4225352,21.971831 C60.4225352,21.4660259 59.9673002,21.056338 59.405262,21.056338 L57.7778365,21.056338 C57.2163271,21.056338 56.7605634,21.4660259 56.7605634,21.971831 C56.7605634,22.4776361 57.2163271,22.8873239 57.7778365,22.8873239 Z" id="Path"></path>
                        <path d="M64.0190783,21.056338 L63.2344428,21.056338 C62.6929986,21.056338 62.2535211,21.4660259 62.2535211,21.971831 C62.2535211,22.4776361 62.6929986,22.8873239 63.2344428,22.8873239 L64.0190783,22.8873239 C64.5610325,22.8873239 65,22.4776361 65,21.971831 C65,21.4660259 64.5610325,21.056338 64.0190783,21.056338 Z" id="Path"></path>
                        <path d="M0.980921717,12.8169014 L1.76555716,12.8169014 C2.30700141,12.8169014 2.74647887,12.4072136 2.74647887,11.9014085 C2.74647887,11.3956033 2.30700141,10.9859155 1.76555716,10.9859155 L0.980921717,10.9859155 C0.438967534,10.9859155 0,11.3956033 0,11.9014085 C0,12.4072136 0.438967534,12.8169014 0.980921717,12.8169014 Z" id="Path"></path>
                        <path d="M5.59473795,12.8169014 L7.22216346,12.8169014 C7.78367293,12.8169014 8.23943662,12.4072136 8.23943662,11.9014085 C8.23943662,11.3956033 7.78367293,10.9859155 7.22216346,10.9859155 L5.59473795,10.9859155 C5.03269978,10.9859155 4.57746479,11.3956033 4.57746479,11.9014085 C4.57746479,12.4072136 5.03269978,12.8169014 5.59473795,12.8169014 Z" id="Path"></path>
                        <path d="M11.0513443,12.8169014 L11.8359797,12.8169014 C12.3774241,12.8169014 12.8169014,12.4072136 12.8169014,11.9014085 C12.8169014,11.3956033 12.3774241,10.9859155 11.8359797,10.9859155 L11.0513443,10.9859155 C10.5093902,10.9859155 10.0704225,11.3956033 10.0704225,11.9014085 C10.0704225,12.4072136 10.5093902,12.8169014 11.0513443,12.8169014 Z" id="Path"></path>
                        <path d="M2.74647887,21.971831 C2.74647887,21.4660259 2.30700141,21.056338 1.76555716,21.056338 L0.980921717,21.056338 C0.438967534,21.056338 0,21.4660259 0,21.971831 C0,22.4776361 0.438967534,22.8873239 0.980921717,22.8873239 L1.76555716,22.8873239 C2.30700141,22.8873239 2.74647887,22.4776361 2.74647887,21.971831 Z" id="Path"></path>
                        <path d="M5.59473795,22.8873239 L7.22216346,22.8873239 C7.78367293,22.8873239 8.23943662,22.4776361 8.23943662,21.971831 C8.23943662,21.4660259 7.78367293,21.056338 7.22216346,21.056338 L5.59473795,21.056338 C5.03269978,21.056338 4.57746479,21.4660259 4.57746479,21.971831 C4.57746479,22.4776361 5.03269978,22.8873239 5.59473795,22.8873239 Z" id="Path"></path>
                        <path d="M11.0513443,22.8873239 L11.8359797,22.8873239 C12.3774241,22.8873239 12.8169014,22.4776361 12.8169014,21.971831 C12.8169014,21.4660259 12.3774241,21.056338 11.8359797,21.056338 L11.0513443,21.056338 C10.5093902,21.056338 10.0704225,21.4660259 10.0704225,21.971831 C10.0704225,22.4776361 10.5093902,22.8873239 11.0513443,22.8873239 Z" id="Path"></path>
                        <path d="M48.5211268,3.66197183 C49.0269319,3.66197183 49.4366197,3.20620802 49.4366197,2.64469857 L49.4366197,1.01727313 C49.4366197,0.455234977 49.0269319,0 48.5211268,0 C48.0157974,0 47.6056338,0.455234977 47.6056338,1.01727313 L47.6056338,2.64469857 C47.6056338,3.20620802 48.0157974,3.66197183 48.5211268,3.66197183 Z" id="Path"></path>
                        <path d="M48.5211268,9.15492958 C49.0269319,9.15492958 49.4366197,8.69916589 49.4366197,8.13765641 L49.4366197,6.51023078 C49.4366197,5.94819274 49.0269319,5.49295775 48.5211268,5.49295775 C48.0157974,5.49295775 47.6056338,5.94819274 47.6056338,6.51023078 L47.6056338,8.13765641 C47.6056338,8.69916589 48.0157974,9.15492958 48.5211268,9.15492958 Z" id="Path"></path>
                        <path d="M16.4788732,9.15492958 C16.9842026,9.15492958 17.3943662,8.69916589 17.3943662,8.13765641 L17.3943662,6.51023078 C17.3943662,5.94819274 16.9842026,5.49295775 16.4788732,5.49295775 C15.9730681,5.49295775 15.5633803,5.94819274 15.5633803,6.51023078 L15.5633803,8.13765641 C15.5633803,8.69916589 15.9730681,9.15492958 16.4788732,9.15492958 Z" id="Path"></path>
                        <path d="M16.4788732,3.66197183 C16.9842026,3.66197183 17.3943662,3.20620802 17.3943662,2.64469857 L17.3943662,1.01727313 C17.3943662,0.455234977 16.9842026,0 16.4788732,0 C15.9730681,0 15.5633803,0.455234977 15.5633803,1.01727313 L15.5633803,2.64469857 C15.5633803,3.20620802 15.9730681,3.66197183 16.4788732,3.66197183 Z" id="Path"></path>
                        <path d="M36.6197183,55.8450704 C36.114389,55.8450704 35.7042254,56.3008341 35.7042254,56.8623436 L35.7042254,58.4897692 C35.7042254,59.0518073 36.114389,59.5070423 36.6197183,59.5070423 C37.1250476,59.5070423 37.5352113,59.0518073 37.5352113,58.4897692 L37.5352113,56.8623436 C37.5352113,56.3008341 37.1250476,55.8450704 36.6197183,55.8450704 Z" id="Path"></path>
                        <path d="M36.6197183,61.3380282 C36.114389,61.3380282 35.7042254,61.793792 35.7042254,62.3553014 L35.7042254,63.9827269 C35.7042254,64.544765 36.114389,65 36.6197183,65 C37.1250476,65 37.5352113,64.544765 37.5352113,63.9827269 L37.5352113,62.3553014 C37.5352113,61.793792 37.1250476,61.3380282 36.6197183,61.3380282 Z" id="Path"></path>
                        <path d="M28.3802817,55.8450704 C27.8749524,55.8450704 27.4647887,56.3008341 27.4647887,56.8623436 L27.4647887,58.4897692 C27.4647887,59.0518073 27.8749524,59.5070423 28.3802817,59.5070423 C28.885611,59.5070423 29.2957746,59.0518073 29.2957746,58.4897692 L29.2957746,56.8623436 C29.2957746,56.3008341 28.885611,55.8450704 28.3802817,55.8450704 Z" id="Path"></path>
                        <path d="M28.3802817,61.3380282 C27.8749524,61.3380282 27.4647887,61.793792 27.4647887,62.3553014 L27.4647887,63.9827269 C27.4647887,64.544765 27.8749524,65 28.3802817,65 C28.885611,65 29.2957746,64.544765 29.2957746,63.9827269 L29.2957746,62.3553014 C29.2957746,61.793792 28.885611,61.3380282 28.3802817,61.3380282 Z" id="Path"></path>
                        <path d="M19.4433263,40.9907013 C19.2672809,40.8143878 19.028815,40.7152419 18.7801082,40.7152419 L13.6391931,40.7152419 C13.1881072,37.8790846 10.7293239,35.7042254 7.77263934,35.7042254 C4.4965372,35.7042254 1.83098592,38.3738371 1.83098592,41.6549296 C1.83098592,44.936022 4.4965372,47.6056338 7.77263934,47.6056338 C10.7293239,47.6056338 13.1881072,45.4307745 13.6391931,42.5946173 L18.391443,42.5946173 L23.1197975,47.3306628 C23.5016356,47.7125941 24.1458349,47.6867087 24.4964627,47.27645 C24.8110035,46.9086824 24.7880835,46.3436 24.4467212,46.0017178 L19.4433263,40.9907013 Z M7.77263934,45.7262584 C5.53086485,45.7262584 3.70750285,43.9001189 3.70750285,41.6549296 C3.70750285,39.4097402 5.53086485,37.5836008 7.77263934,37.5836008 C10.0139262,37.5836008 11.8377758,39.4097402 11.8377758,41.6549296 C11.8377758,43.9001189 10.0139262,45.7262584 7.77263934,45.7262584 Z" id="Shape"></path>
                        <path d="M57.2275961,27.0374423 C54.2710287,27.0374423 51.8123429,29.2903948 51.3612748,32.2283905 L46.7725731,32.2283905 L42.0375789,23.3855647 C41.7893697,22.9216174 41.2085893,22.7495977 40.76191,23.0071215 C40.3147433,23.2646451 40.1489453,23.86722 40.3971547,24.3306615 L45.4003512,33.674368 C45.5661493,33.9834976 45.88019,34.175249 46.2205635,34.175249 L51.3612748,34.175249 C51.8123429,37.1132448 54.2710287,39.3661972 57.2275961,39.3661972 C60.5035684,39.3661972 63.1690141,36.6007271 63.1690141,33.2018198 C63.1690141,29.8029125 60.5035684,27.0374423 57.2275961,27.0374423 Z M57.2275961,37.4193387 C54.9863981,37.4193387 53.1626208,35.5276276 53.1626208,33.2018198 C53.1626208,30.8760119 54.9863981,28.9843009 57.2275961,28.9843009 C59.4692818,28.9843009 61.2925715,30.8760119 61.2925715,33.2018198 C61.2925715,35.5276276 59.4692818,37.4193387 57.2275961,37.4193387 Z" id="Shape"></path>
                        <path d="M19.4145119,4.4501567 C19.1334625,4.83228247 19.1674685,5.39450236 19.5040277,5.73122203 L22.5825691,8.87189825 C22.9736378,9.27086011 23.6342541,9.24433055 23.9938172,8.81577824 C24.316374,8.43161173 24.2933699,7.84133198 23.9428083,7.4836949 L22.5065557,6.01896429 L42.4900702,6.01896429 L41.0538176,7.4836949 C40.703256,7.84133198 40.6802519,8.43161173 41.0028087,8.81577824 C41.3623719,9.24433055 42.0229881,9.27086011 42.4140569,8.87189825 L45.4925983,5.73122203 C45.8686644,5.34807582 45.8686644,4.72667504 45.4925983,4.34352883 L42.4140569,1.20285261 C42.0384908,0.819706406 41.4293837,0.819706406 41.0538176,1.20285261 C40.6782516,1.58599882 40.6782516,2.2073996 41.0538176,2.59054581 L42.4900702,4.05578657 L22.5065557,4.05578657 L23.9428083,2.59054581 C24.3188745,2.2073996 24.3188745,1.58599882 23.9428083,1.20285261 C23.5672422,0.819706406 22.9581352,0.819706406 22.5825691,1.20285261 L19.5040277,4.34352883 C19.4710219,4.37618044 19.4420168,4.41240334 19.4145119,4.4501567 Z" id="Path"></path>
                    </g>
                </g>
            </g>
        </g>
    </g>
</svg>