<?xml version="1.0" encoding="UTF-8"?>
<svg width="40px" height="40px" viewBox="0 0 40 40" version="1.1" xmlns="http://www.w3.org/2000/svg" xmlns:xlink="http://www.w3.org/1999/xlink">
    <title>AFD6A9F8-C9E4-451A-B362-F2EE1738E194</title>
    <g id="Page-1" stroke="none" stroke-width="1" fill="none" fill-rule="evenodd">
        <g id="UI-Kit-module-8" transform="translate(-627.000000, -543.000000)" fill="#D8D8D8" fill-rule="nonzero">
            <g id="atoms/icon/a-icon-picture" transform="translate(627.000000, 543.000000)">
                <g id="landscape-image">
                    <path d="M36.5517241,0 L3.44827586,0 C1.54482759,0 0,1.54482759 0,3.44827586 L0,36.5517241 C0,38.4551724 1.54482759,40 3.44827586,40 L36.5517241,40 C38.4551724,40 40,38.4551724 40,36.5517241 L40,3.44827586 C40,1.54482759 38.4551724,0 36.5517241,0 Z M1.37931034,3.44827586 C1.37931034,2.30344828 2.30344828,1.37931034 3.44827586,1.37931034 L36.5517241,1.37931034 C37.6965517,1.37931034 38.6206897,2.30344828 38.6206897,3.44827586 L38.6206897,25.0758621 L28.7862069,14.0137931 L28.7724138,14 L28.7586207,13.9862069 C28.7448276,13.9724138 28.7310345,13.9724138 28.7172414,13.9586207 C28.7034483,13.9448276 28.6758621,13.9310345 28.662069,13.9172414 C28.6482759,13.9034483 28.6206897,13.8896552 28.6068966,13.8758621 C28.5931034,13.862069 28.5655172,13.8482759 28.5517241,13.8482759 C28.5241379,13.8344828 28.5103448,13.8344828 28.4827586,13.8206897 C28.4689655,13.8206897 28.4413793,13.8068966 28.4275862,13.8068966 C28.4,13.8068966 28.3862069,13.7931034 28.3586207,13.7931034 C28.3310345,13.7931034 28.3172414,13.7931034 28.2896552,13.7931034 C28.262069,13.7931034 28.2482759,13.7931034 28.2206897,13.7931034 C28.1931034,13.7931034 28.1793103,13.7931034 28.1517241,13.7931034 C28.1241379,13.7931034 28.1103448,13.8068966 28.0827586,13.8068966 C28.0551724,13.8068966 28.0413793,13.8206897 28.0275862,13.8206897 C28,13.8344828 27.9862069,13.8344828 27.9586207,13.8482759 C27.9448276,13.862069 27.9172414,13.862069 27.9034483,13.8758621 C27.8896552,13.8896552 27.862069,13.9034483 27.8482759,13.9172414 C27.8344828,13.9310345 27.8206897,13.9310345 27.8068966,13.9448276 L27.7931034,13.9586207 L27.7793103,13.9724138 L14.5517241,27.2551724 L13.5586207,26.3586207 C13.2827586,26.1103448 12.8689655,26.1241379 12.6068966,26.3862069 L1.64137931,37.5310345 C1.47586207,37.2275862 1.37931034,36.8965517 1.37931034,36.5241379 L1.37931034,3.44827586 L1.37931034,3.44827586 Z M2.67586207,38.4689655 L13.1310345,27.8482759 L25.1034483,38.6206897 L3.44827586,38.6206897 C3.17241379,38.6206897 2.91034483,38.5655172 2.67586207,38.4689655 Z M36.5517241,38.6206897 L27.1586207,38.6206897 L15.5724138,28.1931034 L28.2344828,15.4896552 L38.6070468,27.1586207 L38.6070468,36.5517241 C38.6206897,37.6827586 37.6827586,38.6206897 36.5517241,38.6206897 Z" id="Shape"></path>
                    <circle id="Oval" cx="12.5" cy="12.5" r="3.5"></circle>
                    <path d="M4.35294118,16 C4.55058824,16 4.70588235,15.8447059 4.70588235,15.6470588 L4.70588235,4.70588235 L15.6470588,4.70588235 C15.8447059,4.70588235 16,4.55058824 16,4.35294118 C16,4.15529412 15.8447059,4 15.6470588,4 L4.35294118,4 C4.15529412,4 4,4.15529412 4,4.35294118 L4,15.6470588 C4,15.8447059 4.15529412,16 4.35294118,16 Z" id="Path"></path>
                </g>
            </g>
        </g>
    </g>
</svg>