<?xml version="1.0" encoding="UTF-8"?>
<svg width="23px" height="23px" viewBox="0 0 23 23" version="1.1" xmlns="http://www.w3.org/2000/svg" xmlns:xlink="http://www.w3.org/1999/xlink">
    <title>635146F8-2BD4-4BC5-BB14-EF3BA52666B4</title>
    <g id="Page-1" stroke="none" stroke-width="1" fill="none" fill-rule="evenodd">
        <g id="UI-Kit-module-8" transform="translate(-931.000000, -560.000000)" fill="#4D4949" fill-rule="nonzero">
            <g id="atoms/icon/a-icon-dribbble" transform="translate(931.000000, 560.000000)">
                <g id="dribble">
                    <path d="M11.5,0 C5.1678125,0 0,5.16826172 0,11.5 C0,17.8321875 5.16826172,23 11.5,23 C17.8321875,23 23,17.8317383 23,11.5 C23,5.1678125 17.8317383,0 11.5,0 Z M19.3002344,5.00923828 C20.7359375,6.73154297 21.6123633,8.93496094 21.6500977,11.3382812 C19.8505273,10.9173633 17.8519531,10.8890625 15.816543,11.2601172 C15.2869141,11.3566992 14.7572852,11.4793359 14.2308008,11.6266797 C14.0556055,11.1500586 13.8696289,10.6774805 13.6719727,10.2093945 C13.4702734,9.731875 13.2573438,9.26244141 13.0345313,8.79974609 C15.4598633,7.87345703 18.087793,6.49435547 19.3002344,5.00923828 Z M11.5,1.34765625 C14.1423047,1.34765625 16.5514648,2.36244141 18.3595703,4.02230469 C17.6542969,4.98408203 15.6444922,6.38429687 12.42,7.59179688 C11.2942578,5.49574219 9.94435547,3.56949219 8.38466797,1.83730469 C9.36666016,1.51970703 10.4137891,1.34765625 11.5,1.34765625 Z M7.05048828,2.37636719 C8.64117188,4.08025391 10.0094922,5.98314453 11.136582,8.03876953 C7.78181641,9.12453125 4.38527344,9.56746094 1.59248047,9.28130859 C2.27259766,6.24234375 4.31878906,3.71369141 7.05048828,2.37636719 Z M1.34765625,11.5 C1.34765625,11.2017187 1.36158203,10.906582 1.38673828,10.6150391 C2.00306641,10.6801758 2.64589844,10.7129687 3.31029297,10.7129687 C5.93058594,10.7129687 8.87431641,10.2089453 11.7650391,9.25166016 C12.2061719,10.1545898 12.602832,11.0835742 12.9527734,12.0354687 C11.8256836,12.4406641 10.7286914,12.955918 9.69863281,13.5691016 C7.173125,15.0726367 5.32548828,17.0069727 4.55912109,18.9017773 C2.58390625,17.0483008 1.34765625,14.4158789 1.34765625,11.5 Z M11.5,21.6523438 C9.33072266,21.6523438 7.31822266,20.9681836 5.66644531,19.8042578 C6.17855469,18.0738672 7.91074219,16.2019727 10.3881836,14.7271875 C11.2610156,14.2069922 12.2816406,13.7168945 13.3925586,13.3184375 C14.1800391,15.7936328 14.6625,18.4062891 14.8156836,21.0957617 C13.7761914,21.4560352 12.6607812,21.6523438 11.5,21.6523438 Z M16.1300977,20.5337891 C15.9432227,17.9139453 15.4553711,15.3632812 14.6723828,12.9132422 C16.8555859,12.3130859 19.2804687,12.1118359 21.5800195,12.7083984 C21.1730273,16.1229102 19.065293,19.0230664 16.1300977,20.5337891 Z" id="Shape"></path>
                </g>
            </g>
        </g>
    </g>
</svg>