<?xml version="1.0" encoding="UTF-8"?>
<svg width="20px" height="20px" viewBox="0 0 20 20" version="1.1" xmlns="http://www.w3.org/2000/svg" xmlns:xlink="http://www.w3.org/1999/xlink">
    <title>7EB23C40-FD35-47A4-B44F-74BBC2E21606</title>
    <g id="Page-1" stroke="none" stroke-width="1" fill="none" fill-rule="evenodd">
        <g id="UI-Kit-module-8" transform="translate(-380.000000, -1289.000000)" fill="#4D4949" fill-rule="nonzero">
            <g id="atoms/icon/a-icon-search" transform="translate(380.000000, 1289.000000)">
                <g id="magnifying-glass-(4)">
                    <path d="M19.8270126,18.9800443 L14.9656243,14.1197339 C16.2696829,12.6208426 17.0592149,10.6651885 17.0592149,8.52771619 C17.0592149,3.82261641 13.2313151,0 8.52960745,0 C3.82346418,0 0,3.827051 0,8.52771619 C0,13.2283814 3.82789976,17.0554324 8.52960745,17.0554324 C10.6675538,17.0554324 12.6236416,16.2660754 14.1228654,14.962306 L18.9842537,19.8226164 C19.0995786,19.9379157 19.2548237,20 19.4056332,20 C19.5564427,20 19.7116877,19.9423503 19.8270126,19.8226164 C20.0576625,19.5920177 20.0576625,19.210643 19.8270126,18.9800443 Z M1,8.49773208 C1,4.36105231 4.36660617,1 8.5,1 C12.637931,1 16,4.36558815 16,8.49773208 C16,12.629876 12.637931,16 8.5,16 C4.36660617,16 1,12.6344119 1,8.49773208 Z" id="Shape"></path>
                </g>
            </g>
        </g>
    </g>
</svg>