<?xml version="1.0" encoding="UTF-8"?>
<svg width="40px" height="40px" viewBox="0 0 40 40" version="1.1" xmlns="http://www.w3.org/2000/svg" xmlns:xlink="http://www.w3.org/1999/xlink">
    <title>44815B71-525D-4A8D-B460-1EFA0B2AEFFD</title>
    <g id="Page-1" stroke="none" stroke-width="1" fill="none" fill-rule="evenodd">
        <g id="UI-Kit-module-8" transform="translate(-557.000000, -543.000000)" fill="#D8D8D8" fill-rule="nonzero">
            <g id="atoms/icon/a-icon-playmini" transform="translate(557.000000, 543.000000)">
                <g id="play-button">
                    <path d="M28.6170565,19.2431427 L17.3583753,11.1531243 C17.0083645,10.8817059 16.0750023,10.8817059 16,11.9060914 L16,28.0861282 C16.0833359,29.1105136 17.0333653,29.1280245 17.3583753,28.8390952 L28.6170565,20.7490768 C28.9087322,20.5652128 29.3087445,19.8122457 28.6170565,19.2431427 Z M17.7417205,26.3613082 L17.7417205,13.6309113 L26.5836603,19.9961098 L17.7417205,26.3613082 L17.7417205,26.3613082 Z" id="Shape"></path>
                    <path d="M20,0 C8.97142857,0 0,8.97142857 0,20 C0,31.0285714 8.97142857,40 20,40 C31.0285714,40 40,31.0285714 40,20 C40,8.97142857 31.0285714,0 20,0 Z M20,38.2938776 C9.91020408,38.2938776 1.70612245,30.0897959 1.70612245,20 C1.70612245,9.91020408 9.91020408,1.70612245 20,1.70612245 C30.0897959,1.70612245 38.2938776,9.91020408 38.2938776,20 C38.2938776,30.0897959 30.0897959,38.2938776 20,38.2938776 Z" id="Shape"></path>
                </g>
            </g>
        </g>
    </g>
</svg>