<?xml version="1.0" encoding="UTF-8"?>
<svg width="14px" height="8px" viewBox="0 0 14 8" version="1.1" xmlns="http://www.w3.org/2000/svg" xmlns:xlink="http://www.w3.org/1999/xlink">
    <title>F16822C5-A4FE-47A5-A6D4-16D088A7204C</title>
    <g id="Page-1" stroke="none" stroke-width="1" fill="none" fill-rule="evenodd">
        <g id="UI-Kit-module-8" transform="translate(-1207.000000, -575.000000)" fill="#4D4949" fill-rule="nonzero">
            <g id="atoms/icon/a-icon-showpass" transform="translate(1207.000000, 575.000000)">
                <g id="view">
                    <path d="M12.075269,2.10351869 C9.26372865,-0.701172897 4.68944781,-0.701172897 1.87790747,2.10351869 L0,3.97661577 L1.92449452,5.89642233 C3.33014645,7.29865017 5.17660175,8 7.02329353,8 C8.8699853,8 10.7162041,7.29888608 12.1220925,5.89642233 L14,4.02308934 L12.075269,2.10351869 Z M11.7874698,5.56285063 C9.1603858,8.1832993 4.88596476,8.1832993 2.25888076,5.56285063 L0.668772487,3.97661577 L2.21229371,2.43685448 C4.83937771,-0.183594182 9.11379875,-0.183594182 11.7408828,2.43685448 L13.330991,4.02308934 L11.7874698,5.56285063 Z" id="Shape"></path>
                    <path d="M6.75,2 C5.785,2 5,2.785 5,3.75 C5,3.888 5.112,4 5.25,4 C5.388,4 5.5,3.888 5.5,3.75 C5.5,3.06075 6.06075,2.5 6.75,2.5 C6.888,2.5 7,2.388 7,2.25 C7,2.112 6.88825,2 6.75,2 Z" id="Path"></path>
                    <path d="M7,1 C5.34584615,1 4,2.34584615 4,4 C4,5.65415385 5.34584615,7 7,7 C8.65415385,7 10,5.65415385 10,4 C10,2.34584615 8.65438462,1 7,1 Z M7,6.53846154 C5.60038462,6.53846154 4.46153846,5.39961538 4.46153846,4 C4.46153846,2.60038462 5.60038462,1.46153846 7,1.46153846 C8.39961538,1.46153846 9.53846154,2.60038462 9.53846154,4 C9.53846154,5.39961538 8.39984615,6.53846154 7,6.53846154 Z" id="Shape"></path>
                </g>
            </g>
        </g>
    </g>
</svg>